<?xml version="1.0" encoding="UTF-8"?><svg id="a" xmlns="http://www.w3.org/2000/svg" xmlns:xlink="http://www.w3.org/1999/xlink" viewBox="0 0 256 256"><defs><style>.d{mask:url(#b);}.e{fill:none;}.f{fill:#f7b200;}.g{clip-path:url(#c);}</style><mask id="b" x="1.88" y="11.97" width="252.24" height="232.06" maskUnits="userSpaceOnUse"><polygon class="f" points="207.79 137.03 172.57 76.15 158.48 69.61 84.52 69.61 49.3 127.97 49.3 145.08 84.52 205.45 158.48 205.45 172.57 198.41 207.79 137.03"/></mask><clipPath id="c"><rect class="e" x="1.88" y="11.97" width="252.24" height="232.06"/></clipPath></defs><path class="f" d="M189.78,55.01c-1-1.72-.5-3.87,1.1-4.8l10.65-6.12,3.74,6.2-10.79,6.17c-1.59,.93-3.7,.27-4.7-1.45Z"/><rect class="f" x="221.12" y="39.63" width="10.12" height="3.71"/><path class="f" d="M210.36,46.83c-2.96,0-5.35-2.39-5.35-5.35s2.39-5.35,5.35-5.35,5.35,2.39,5.35,5.35-2.39,5.35-5.35,5.35Zm0-16.28c-6.04,0-10.94,4.9-10.94,10.94s4.9,10.94,10.94,10.94,10.94-4.9,10.94-10.94-4.9-10.94-10.94-10.94Z"/><path class="f" d="M235.57,45.04c-1.96,0-3.55-1.59-3.55-3.55s1.59-3.55,3.55-3.55,3.55,1.59,3.55,3.55-1.59,3.55-3.55,3.55Zm0-10.79c-3.99,0-7.23,3.24-7.23,7.23s3.24,7.23,7.23,7.23,7.23-3.24,7.23-7.23-3.23-7.23-7.23-7.23Z"/><path class="f" d="M169.98,217.45c-4.07,0-7.36-3.29-7.36-7.36s3.29-7.36,7.36-7.36,7.36,3.29,7.36,7.36-3.29,7.36-7.36,7.36Zm-12.51-14.81H87.13l-34.92-58.2c1.11-2.05,1.73-4.4,1.73-6.88s-.61-4.8-1.71-6.83l34.9-58.16h70.35c2.54,4.23,7.16,7.05,12.45,7.05t34.82,57.99l-34.86,58.01c-5.27-.01-9.88,2.81-12.42,7.02Zm12.46-144.79c4,0,7.26,3.26,7.26,7.26,0,2.64-1.42,4.95-3.53,6.22-1.09,.65-2.36,1.04-3.72,1.04-4.01,0-7.26-3.26-7.26-7.26s3.25-7.26,7.26-7.26ZM39.46,144.96c-4.07,0-7.36-3.29-7.36-7.36s3.29-7.36,7.36-7.36,7.36,3.29,7.36,7.36-3.29,7.36-7.36,7.36Zm137.91,52.73l36.05-60.09-36.02-60.05c4.23-2.54,7.04-7.15,7.04-12.44,0-8.01-6.49-14.5-14.5-14.5s-14.5,6.49-14.5,14.5t-72.49,0l-36,60.02c-2.18-1.32-4.75-2.07-7.49-2.07-8.01,0-14.51,6.49-14.51,14.51s6.49,14.51,14.51,14.51c2.72,0,5.26-.74,7.45-2.05l36.06,60.09h72.47c0,8,6.49,14.49,14.49,14.49s14.49-6.49,14.49-14.49c-.02-5.28-2.83-9.89-7.03-12.43Z"/><path class="f" d="M126.3,108.65c-3.83,0-7.5,.74-10.85,2.09,10.65,4.3,18.16,14.72,18.16,26.91s-7.52,22.61-18.16,26.91c3.35,1.35,7.01,2.09,10.85,2.09,16.02,0,29.01-12.99,29.01-29.01s-12.99-28.99-29.01-28.99Z"/><path class="f" d="M159.95,151.68l24.35-14.06-25.01-14.44c2.08,4.58,3.25,9.66,3.25,15.01,0,4.77-.93,9.32-2.6,13.48Z"/><path class="f" d="M122.81,102.12l-25.4-14.66v28.85c5.96-7.85,15.04-13.2,25.4-14.19Z"/><path class="f" d="M97.41,160.08v27.7l23.75-13.72c-9.66-1.37-18.1-6.55-23.75-13.99Z"/><path class="f" d="M155.29,116.62v-29.12l-25.53,14.73c10.44,1.02,19.58,6.44,25.53,14.39Z"/><path class="f" d="M90.01,138.31c0-5.34,1.16-10.43,3.24-14.98l-24.85,14.35,24.12,13.93c-1.63-4.13-2.52-8.6-2.52-13.29Z"/><path class="f" d="M131.6,174.17l23.69,13.68v-27.83c-5.59,7.48-14.02,12.72-23.69,14.16Z"/><g class="d"><g class="g"><path class="f" d="M205.89,199.64c.01-.77,.71-1.47,1.49-1.46,.78,.01,1.46,.7,1.43,1.5-.02,.7-.74,1.41-1.44,1.42-.79,.01-1.48-.66-1.48-1.46Z"/><path class="f" d="M50.05,68.98c.75,.02,1.45,.75,1.43,1.53-.02,.72-.7,1.38-1.45,1.39-.78,0-1.5-.7-1.47-1.47,.02-.79,.71-1.48,1.49-1.45Z"/><path class="f" d="M206.94,77.22c-.76,.02-1.41-.57-1.45-1.35-.05-.82,.66-1.56,1.48-1.55,.73,.01,1.39,.66,1.41,1.41,.01,.78-.64,1.46-1.44,1.49Z"/><path class="f" d="M204.14,202.18c.79-.01,1.47,.68,1.46,1.48-.01,.73-.68,1.36-1.47,1.36-.84,0-1.44-.57-1.45-1.35-.02-.77,.67-1.48,1.46-1.49Z"/><path class="f" d="M205.1,71.77c.02,.84-.59,1.49-1.42,1.5-.72,.01-1.4-.66-1.42-1.42-.03-.78,.67-1.52,1.43-1.5,.75,.01,1.39,.65,1.41,1.42Z"/><path class="f" d="M50.41,204.56c.75-.01,1.47,.62,1.5,1.33,.03,.78-.65,1.51-1.42,1.51-.84,0-1.49-.63-1.47-1.44,0-.77,.61-1.39,1.39-1.4Z"/><path class="f" d="M51.94,78.15c-.01,.76-.56,1.35-1.3,1.36-.78,.02-1.38-.59-1.36-1.39,.02-.82,.62-1.41,1.39-1.37,.73,.04,1.28,.63,1.27,1.4Z"/><path class="f" d="M60.12,206.93c-.08,.73-.83,1.34-1.54,1.25-.68-.09-1.27-.82-1.19-1.48,.1-.75,.83-1.35,1.53-1.25,.71,.11,1.28,.81,1.2,1.48Z"/><path class="f" d="M195.15,204.06c.78-.01,1.4,.61,1.38,1.38-.02,.72-.6,1.32-1.34,1.34-.77,.03-1.39-.58-1.38-1.38,.01-.7,.64-1.34,1.34-1.34Z"/><path class="f" d="M197.21,71.31c.72-.01,1.4,.67,1.39,1.41-.01,.69-.65,1.33-1.35,1.34-.68,.01-1.35-.61-1.39-1.31-.04-.71,.62-1.43,1.35-1.44Z"/><path class="f" d="M200.47,197.87c0-.73,.59-1.31,1.36-1.33,.81-.01,1.43,.6,1.4,1.38-.03,.74-.63,1.29-1.41,1.28-.75-.02-1.35-.59-1.35-1.33Z"/><path class="f" d="M198.57,203.11c-.68-.01-1.31-.65-1.32-1.37-.01-.71,.69-1.39,1.43-1.37,.68,.02,1.31,.67,1.32,1.37,.01,.73-.66,1.37-1.43,1.37Z"/><path class="f" d="M51.88,200.75c-.67,0-1.35-.66-1.34-1.34,.01-.74,.67-1.42,1.4-1.4,.69,.01,1.34,.65,1.35,1.35,.01,.72-.66,1.39-1.41,1.39Z"/><path class="f" d="M207.91,84.6c0,.75-.56,1.33-1.32,1.34-.73,.01-1.32-.57-1.34-1.34-.02-.78,.61-1.42,1.39-1.39,.75,.03,1.27,.59,1.27,1.39Z"/><path class="f" d="M205.05,80.46c-.02,.73-.61,1.3-1.38,1.3s-1.39-.57-1.37-1.29c.02-.78,.65-1.39,1.43-1.36,.75,.03,1.34,.62,1.32,1.35Z"/><path class="f" d="M55.23,201.84c.73,.01,1.33,.6,1.33,1.35s-.55,1.36-1.29,1.38c-.78,.02-1.39-.59-1.37-1.39,.03-.79,.58-1.35,1.33-1.34Z"/><path class="f" d="M199.21,76.44c0-.74,.59-1.33,1.34-1.32,.74,0,1.33,.58,1.33,1.33,0,.79-.61,1.43-1.38,1.4-.69-.03-1.29-.67-1.29-1.41Z"/><path class="f" d="M195.05,69.07c-.02,.75-.6,1.35-1.33,1.35s-1.36-.68-1.34-1.45c.03-.74,.63-1.3,1.39-1.27,.74,.02,1.3,.61,1.28,1.37Z"/><path class="f" d="M204.88,192.51c.76-.02,1.35,.52,1.38,1.27,.03,.77-.57,1.39-1.38,1.38-.7-.01-1.36-.64-1.35-1.34,.01-.7,.6-1.29,1.35-1.31Z"/><path class="f" d="M57.37,71.91c-.79,.03-1.41-.55-1.42-1.35-.01-.7,.5-1.26,1.23-1.31,.83-.05,1.47,.49,1.48,1.27,.01,.73-.57,1.37-1.29,1.39Z"/><path class="f" d="M207.71,188.32c.75,0,1.35,.56,1.37,1.3,.02,.78-.59,1.38-1.39,1.36-.75-.02-1.34-.6-1.34-1.33s.65-1.33,1.36-1.33Z"/><path class="f" d="M52.52,74.24c.02-.75,.6-1.34,1.34-1.33,.79,0,1.37,.62,1.32,1.43-.04,.74-.65,1.32-1.37,1.3-.69-.03-1.31-.69-1.29-1.4Z"/><path class="f" d="M50.14,195.48c-.02,.75-.58,1.3-1.35,1.29-.79-.01-1.36-.61-1.31-1.43,.04-.75,.62-1.27,1.4-1.23,.75,.04,1.28,.6,1.26,1.37Z"/><path class="f" d="M198.23,80.62c.01,.66-.52,1.25-1.17,1.28-.66,.04-1.33-.55-1.36-1.21-.03-.65,.58-1.33,1.24-1.34,.68-.01,1.28,.56,1.29,1.27Z"/><path class="f" d="M60.98,202.66c.01-.69,.6-1.28,1.3-1.27,.65,.01,1.27,.68,1.24,1.34-.04,.66-.69,1.25-1.37,1.21-.65-.03-1.18-.61-1.17-1.28Z"/><path class="f" d="M54.54,83.58c-.02,.69-.6,1.23-1.33,1.2-.67-.02-1.21-.55-1.22-1.21-.01-.69,.56-1.26,1.29-1.25,.71,0,1.27,.55,1.26,1.26Z"/><path class="f" d="M50.35,86.37c.65-.02,1.3,.61,1.3,1.28s-.63,1.27-1.31,1.27-1.2-.55-1.22-1.22c-.03-.69,.53-1.3,1.23-1.33Z"/><path class="f" d="M192.42,76.83c0-.66,.53-1.24,1.18-1.27,.66-.03,1.33,.56,1.36,1.22,.03,.65-.59,1.32-1.25,1.33-.69,.01-1.29-.58-1.29-1.28Z"/><path class="f" d="M56.75,195.27c-.01,.67-.55,1.23-1.2,1.25-.67,.01-1.32-.59-1.33-1.25s.63-1.31,1.28-1.3c.68,0,1.26,.59,1.25,1.3Z"/><path class="f" d="M59.99,199.04c0,.71-.55,1.29-1.25,1.28-.66-.01-1.19-.54-1.21-1.22-.03-.75,.56-1.35,1.31-1.33,.63,.02,1.15,.58,1.15,1.27Z"/><path class="f" d="M194.82,196.35c.01-.66,.55-1.2,1.23-1.21,.73-.01,1.35,.62,1.31,1.35-.04,.63-.62,1.16-1.29,1.16-.66,.01-1.26-.61-1.25-1.3Z"/><path class="f" d="M200.44,192.47c-.01,.7-.59,1.28-1.29,1.26-.62-.01-1.21-.61-1.22-1.24,0-.69,.56-1.29,1.26-1.31,.68-.02,1.26,.58,1.25,1.29Z"/><path class="f" d="M65.91,207.38c-.63,.01-1.31-.65-1.3-1.29,.01-.59,.61-1.23,1.22-1.27,.63-.04,1.32,.59,1.35,1.24,.02,.62-.62,1.31-1.27,1.32Z"/><path class="f" d="M207.82,96.19c.7,.01,1.28,.6,1.26,1.29-.01,.65-.67,1.27-1.33,1.24-.62-.03-1.2-.63-1.2-1.26-.01-.71,.56-1.28,1.27-1.27Z"/><path class="f" d="M63.17,73.53c-.66-.02-1.2-.56-1.2-1.22,0-.69,.56-1.24,1.29-1.24s1.29,.57,1.24,1.26c-.04,.72-.59,1.22-1.33,1.2Z"/><path class="f" d="M49.66,185.89c.7,.02,1.27,.61,1.23,1.3-.05,.69-.64,1.21-1.36,1.16-.66-.04-1.19-.59-1.18-1.25,.01-.69,.59-1.23,1.31-1.21Z"/><path class="f" d="M68.22,68.87c.02,.68-.56,1.31-1.23,1.32-.7,.01-1.27-.54-1.28-1.26,0-.69,.57-1.26,1.28-1.25,.66,0,1.21,.52,1.23,1.19Z"/><path class="f" d="M57.6,79.66c-.02,.71-.59,1.27-1.29,1.23-.67-.04-1.2-.64-1.17-1.37,.03-.64,.58-1.17,1.26-1.18,.67,0,1.21,.58,1.2,1.32Z"/><path class="f" d="M60.97,75.84c0,.69-.58,1.28-1.28,1.27-.65-.01-1.27-.65-1.26-1.31,.02-.62,.62-1.21,1.24-1.22,.7,0,1.3,.58,1.3,1.26Z"/><path class="f" d="M207.22,180.94c-.72,.02-1.3-.51-1.31-1.22-.01-.67,.57-1.24,1.3-1.24,.68-.01,1.26,.57,1.26,1.28-.01,.63-.56,1.16-1.25,1.18Z"/><path class="f" d="M204.74,185.35c-.71-.01-1.28-.59-1.24-1.29,.04-.69,.62-1.22,1.35-1.18,.66,.03,1.2,.58,1.19,1.24,0,.69-.57,1.24-1.3,1.23Z"/><path class="f" d="M203.36,188.37c0,.7-.56,1.27-1.28,1.26-.66-.01-1.26-.62-1.24-1.31,.02-.66,.55-1.19,1.23-1.2,.71-.01,1.29,.55,1.29,1.25Z"/><path class="f" d="M190.43,203.72c-.01,.68-.53,1.24-1.17,1.25-.7,.01-1.3-.55-1.29-1.24,0-.72,.55-1.31,1.24-1.3,.69,0,1.24,.56,1.22,1.29Z"/><path class="f" d="M53.73,191.28c-.02,.69-.62,1.26-1.32,1.23-.65-.03-1.26-.69-1.22-1.35,.04-.62,.64-1.19,1.27-1.2,.63,0,1.29,.67,1.27,1.32Z"/><path class="f" d="M200.02,85.86c-.73-.01-1.24-.53-1.22-1.28,.02-.71,.59-1.27,1.29-1.23,.65,.03,1.18,.58,1.17,1.25,.01,.73-.52,1.27-1.24,1.26Z"/><path class="f" d="M192.72,201.39c-.71-.02-1.26-.57-1.25-1.29,.01-.68,.59-1.21,1.33-1.17,.68,.03,1.21,.56,1.2,1.21-.01,.71-.58,1.27-1.28,1.25Z"/><path class="f" d="M187.8,69.79c-.02,.72-.58,1.29-1.27,1.27-.7-.02-1.22-.59-1.2-1.32,.02-.7,.62-1.26,1.31-1.21,.65,.04,1.17,.6,1.16,1.26Z"/><path class="f" d="M206.69,93.02c0,.7-.56,1.27-1.27,1.26-.68-.01-1.18-.5-1.2-1.2-.02-.72,.5-1.3,1.2-1.31,.7-.02,1.28,.54,1.27,1.25Z"/><path class="f" d="M191.44,73.2c0,.71-.54,1.28-1.24,1.28-.64,0-1.19-.54-1.22-1.21-.03-.7,.52-1.31,1.2-1.33,.7-.01,1.26,.54,1.26,1.26Z"/><path class="f" d="M202.91,89.98c-.66,.02-1.23-.47-1.28-1.14-.05-.73,.44-1.29,1.18-1.32,.7-.02,1.23,.43,1.28,1.12,.05,.71-.48,1.31-1.18,1.34Z"/><path class="f" d="M71.83,72.87c.02,.65-.54,1.21-1.21,1.2-.61-.01-1.15-.53-1.16-1.15-.01-.64,.55-1.21,1.22-1.21,.6,0,1.13,.53,1.15,1.16Z"/><path class="f" d="M202.86,102.03c0-.65,.57-1.21,1.23-1.18,.61,.02,1.14,.56,1.14,1.18,0,.64-.58,1.2-1.24,1.18-.61-.01-1.13-.54-1.13-1.18Z"/><path class="f" d="M207.67,165.86c-.62,0-1.17-.51-1.18-1.12-.02-.67,.53-1.24,1.18-1.22,.65,.02,1.17,.5,1.19,1.12,.01,.64-.53,1.22-1.19,1.22Z"/><path class="f" d="M67,198.57c.66,.02,1.21,.6,1.18,1.24-.03,.61-.57,1.13-1.19,1.12-.64-.01-1.2-.58-1.18-1.25,.02-.59,.58-1.13,1.19-1.11Z"/><path class="f" d="M197.85,186.77c-.03,.64-.63,1.18-1.28,1.13-.61-.05-1.08-.59-1.07-1.24,.01-.63,.62-1.17,1.28-1.12,.6,.04,1.09,.6,1.07,1.23Z"/><path class="f" d="M201.83,98.8c-.6,.02-1.17-.51-1.18-1.12-.02-.65,.53-1.23,1.18-1.24,.61-.01,1.16,.5,1.18,1.13,.03,.63-.52,1.21-1.18,1.23Z"/><path class="f" d="M49.49,174.87c.62-.02,1.18,.47,1.22,1.08,.05,.66-.49,1.26-1.14,1.27-.64,0-1.18-.46-1.23-1.08-.04-.65,.49-1.25,1.15-1.27Z"/><path class="f" d="M192.59,190.68c.01-.69,.52-1.18,1.22-1.16,.62,.02,1.15,.55,1.13,1.16-.02,.63-.61,1.21-1.25,1.19-.6-.02-1.11-.55-1.1-1.19Z"/><path class="f" d="M204.04,172.7c.6-.01,1.16,.51,1.19,1.12,.04,.63-.53,1.23-1.18,1.23s-1.2-.57-1.19-1.23c.01-.58,.55-1.11,1.18-1.12Z"/><path class="f" d="M199.37,183.73c-.68-.02-1.17-.53-1.15-1.23,.02-.63,.52-1.1,1.18-1.09,.63,0,1.2,.6,1.17,1.24-.04,.6-.57,1.1-1.2,1.08Z"/><path class="f" d="M62.37,79.72c0-.62,.5-1.17,1.11-1.19,.66-.03,1.26,.52,1.24,1.16-.02,.59-.56,1.18-1.12,1.21-.65,.02-1.23-.53-1.23-1.18Z"/><path class="f" d="M207.67,110.04c.64,0,1.2,.58,1.17,1.23-.03,.56-.61,1.1-1.21,1.12-.63,.01-1.18-.57-1.15-1.24,.02-.61,.56-1.12,1.19-1.11Z"/><path class="f" d="M66.98,77.34c-.62-.01-1.16-.52-1.17-1.12-.02-.63,.56-1.21,1.21-1.2,.65,.01,1.21,.58,1.17,1.23-.04,.6-.57,1.1-1.21,1.09Z"/><path class="f" d="M58.37,87.37c-.02,.62-.55,1.14-1.16,1.12-.64-.02-1.2-.61-1.16-1.25,.04-.65,.53-1.12,1.18-1.1,.68,.02,1.17,.53,1.14,1.23Z"/><path class="f" d="M203.02,178.32c-.02,.64-.62,1.19-1.26,1.14-.6-.05-1.12-.6-1.1-1.21,.02-.64,.62-1.2,1.26-1.14,.61,.05,1.12,.6,1.1,1.21Z"/><path class="f" d="M183.62,73.3c.66-.02,1.17,.43,1.19,1.09,.02,.66-.43,1.19-1.06,1.24-.64,.05-1.23-.49-1.25-1.17-.03-.63,.45-1.13,1.12-1.16Z"/><path class="f" d="M191.78,194.48c-.02,.62-.64,1.2-1.26,1.16-.6-.04-1.13-.58-1.12-1.18,.01-.63,.59-1.17,1.25-1.14,.62,.03,1.15,.57,1.13,1.16Z"/><path class="f" d="M178.75,71.26c-.01-.61,.5-1.15,1.14-1.17,.63-.02,1.19,.48,1.2,1.11,.02,.62-.57,1.24-1.21,1.24s-1.12-.54-1.13-1.18Z"/><path class="f" d="M198.22,93.36c0-.63,.51-1.18,1.13-1.19,.68-.01,1.22,.53,1.19,1.22-.02,.6-.6,1.17-1.18,1.15-.63-.03-1.14-.55-1.14-1.18Z"/><path class="f" d="M196.63,90.38c-.62-.01-1.16-.55-1.14-1.17,.02-.64,.63-1.21,1.27-1.18,.6,.03,1.1,.6,1.07,1.24-.02,.61-.56,1.12-1.2,1.11Z"/><path class="f" d="M75.66,206.15c.01,.61-.49,1.16-1.1,1.18-.61,.02-1.22-.55-1.25-1.18-.02-.62,.55-1.18,1.22-1.17,.6,.02,1.11,.54,1.13,1.17Z"/><path class="f" d="M55.57,91.34c.01,.62-.49,1.16-1.13,1.19-.57,.03-1.17-.52-1.2-1.13-.04-.66,.5-1.23,1.18-1.23,.61,.01,1.14,.53,1.15,1.17Z"/><path class="f" d="M63.54,197.37c-.66-.01-1.16-.48-1.17-1.13-.01-.68,.54-1.22,1.22-1.19,.59,.02,1.14,.59,1.13,1.2,0,.61-.54,1.13-1.18,1.12Z"/><path class="f" d="M187.2,196.94c.66-.01,1.17,.46,1.19,1.11,.02,.68-.51,1.23-1.19,1.22-.59-.01-1.15-.57-1.16-1.17-.01-.62,.52-1.16,1.16-1.16Z"/><path class="f" d="M190.6,80.32c.62,0,1.18,.53,1.19,1.13,0,.58-.55,1.17-1.15,1.19-.65,.03-1.25-.55-1.23-1.2,.01-.61,.55-1.13,1.19-1.12Z"/><path class="f" d="M58.38,188.68c-.02,.66-.49,1.13-1.15,1.13-.69-.01-1.16-.52-1.12-1.25,.04-.67,.5-1.09,1.2-1.06,.66,.03,1.09,.49,1.07,1.18Z"/><path class="f" d="M182.52,201.52c-.01-.69,.41-1.15,1.09-1.17,.69-.02,1.16,.39,1.19,1.07,.04,.71-.44,1.24-1.14,1.24-.65-.01-1.12-.47-1.14-1.14Z"/><path class="f" d="M70.68,204.21c-.63,.02-1.18-.48-1.2-1.1-.02-.59,.51-1.18,1.11-1.22,.67-.04,1.24,.48,1.24,1.16,0,.6-.51,1.14-1.15,1.16Z"/><path class="f" d="M205.93,105.42c.66-.03,1.16,.42,1.19,1.08,.02,.69-.48,1.26-1.14,1.26-.61,0-1.12-.51-1.14-1.16-.03-.67,.42-1.15,1.09-1.18Z"/><path class="f" d="M49.56,98.78c.63,.02,1.16,.56,1.14,1.17-.02,.59-.59,1.15-1.18,1.16-.62,0-1.23-.62-1.19-1.24,.03-.61,.59-1.11,1.23-1.09Z"/><path class="f" d="M187.27,76.71c.63,.03,1.14,.56,1.12,1.19-.02,.68-.59,1.2-1.26,1.14-.59-.05-1.12-.65-1.08-1.24,.03-.63,.58-1.13,1.22-1.09Z"/><path class="f" d="M60.27,84.56c-.66,0-1.13-.47-1.14-1.14,0-.65,.47-1.17,1.1-1.2,.65-.03,1.19,.51,1.18,1.21,0,.66-.47,1.13-1.14,1.13Z"/><path class="f" d="M75.65,69.78c.01,.66-.45,1.15-1.11,1.16-.69,.01-1.25-.52-1.23-1.17,.02-.61,.54-1.1,1.19-1.11,.66-.01,1.14,.45,1.15,1.12Z"/><path class="f" d="M61.4,192.55c-.02,.62-.54,1.17-1.14,1.17-.63,0-1.18-.6-1.13-1.27,.04-.62,.58-1.13,1.2-1.1,.63,.03,1.09,.54,1.07,1.2Z"/><path class="f" d="M55.57,184.53c.01,.69-.48,1.2-1.19,1.2-.65,0-1.1-.47-1.09-1.16,.01-.66,.49-1.17,1.12-1.16,.65,.01,1.15,.48,1.16,1.12Z"/><path class="f" d="M51.88,181.52c-.69,0-1.19-.51-1.17-1.21,.02-.65,.49-1.08,1.19-1.06,.65,.02,1.16,.51,1.14,1.14-.03,.65-.52,1.13-1.16,1.13Z"/><path class="f" d="M205.98,170.47c-.69-.02-1.17-.55-1.13-1.25,.04-.62,.56-1.09,1.21-1.07,.61,.02,1.08,.54,1.06,1.21-.01,.68-.47,1.14-1.14,1.11Z"/><path class="f" d="M193.77,86.39c-.69,.02-1.16-.41-1.18-1.08-.01-.69,.49-1.2,1.19-1.2,.64,.01,1.13,.48,1.14,1.15,.01,.62-.49,1.12-1.15,1.13Z"/><path class="f" d="M179.87,203.55c.65,0,1.17,.47,1.2,1.09,.03,.65-.53,1.2-1.21,1.18-.65-.02-1.14-.5-1.14-1.15,.02-.65,.48-1.12,1.15-1.12Z"/><path class="f" d="M52.97,95.59c-.01,.62-.52,1.15-1.14,1.15s-1.13-.52-1.13-1.15c0-.66,.55-1.22,1.2-1.19,.62,.03,1.08,.53,1.07,1.19Z"/><path class="f" d="M207.31,144.47c0,.68-.47,1.21-1.08,1.19-.56-.01-1.09-.53-1.12-1.09-.03-.67,.51-1.25,1.17-1.23,.62,.02,1.03,.47,1.03,1.13Z"/><path class="f" d="M201.77,109.67c.57,0,1.09,.52,1.09,1.1s-.53,1.09-1.1,1.09-1.09-.53-1.09-1.1,.53-1.1,1.1-1.09Z"/><path class="f" d="M201.66,168.28c-.01,.6-.49,1.09-1.09,1.07-.6-.01-1.09-.48-1.09-1.08-.01-.58,.48-1.05,1.11-1.06,.62,0,1.08,.44,1.07,1.07Z"/><path class="f" d="M207.51,134.69c0,.6-.48,1.06-1.11,1.05-.57-.01-1.07-.54-1.06-1.12,.01-.56,.54-1.06,1.13-1.05,.59,0,1.04,.48,1.04,1.12Z"/><path class="f" d="M50.54,114.62c.02,.61-.42,1.08-1.06,1.09-.62,0-1.12-.44-1.13-1.03-.01-.59,.46-1.08,1.07-1.1,.6-.04,1.1,.43,1.12,1.04Z"/><path class="f" d="M199.91,105.19c.64-.02,1.12,.38,1.14,1,.03,.61-.41,1.09-1.04,1.12-.61,.03-1.11-.41-1.15-1.01-.02-.6,.43-1.09,1.05-1.11Z"/><path class="f" d="M194.03,93.34c.02,.61-.43,1.08-1.06,1.08s-1.12-.45-1.12-1.04,.46-1.07,1.08-1.09c.58-.03,1.08,.44,1.1,1.05Z"/><path class="f" d="M76.73,73.88c.62,.02,1.1,.5,1.08,1.08-.02,.59-.51,1.05-1.12,1.05s-1.07-.49-1.06-1.1c0-.61,.47-1.06,1.1-1.03Z"/><path class="f" d="M197.87,102.84c-.62-.01-1.07-.47-1.05-1.09,.02-.6,.52-1.07,1.12-1.04,.61,.03,1.07,.5,1.06,1.11-.01,.58-.5,1.03-1.13,1.02Z"/><path class="f" d="M51.01,111.07c-.62-.01-1.09-.47-1.07-1.08,.02-.58,.53-1.1,1.1-1.09,.56,.01,1.07,.52,1.07,1.11,.01,.61-.46,1.07-1.1,1.06Z"/><path class="f" d="M48.24,118.29c.57,.03,1.08,.57,1.05,1.14-.03,.57-.57,1.08-1.14,1.05-.57-.03-1.07-.57-1.05-1.14,.03-.58,.57-1.08,1.14-1.05Z"/><path class="f" d="M169.53,69.75c.02,.63-.4,1.11-1.02,1.13-.59,.02-1.08-.44-1.12-1.05-.03-.59,.44-1.11,1.03-1.13,.61-.01,1.09,.43,1.11,1.05Z"/><path class="f" d="M74.03,78.03c.01,.59-.46,1.09-1.07,1.1-.57,.01-1.1-.49-1.12-1.06-.02-.55,.48-1.08,1.08-1.11,.55-.03,1.1,.49,1.11,1.07Z"/><path class="f" d="M81.7,72.04c.01,.6-.46,1.07-1.09,1.07-.57,0-1.08-.52-1.08-1.1s.52-1.07,1.11-1.07c.58-.01,1.05,.47,1.06,1.1Z"/><path class="f" d="M77.87,203.01c-.62-.01-1.07-.48-1.03-1.11,.03-.58,.55-1.07,1.13-1.05,.57,.02,1.07,.55,1.05,1.13-.02,.56-.54,1.04-1.15,1.03Z"/><path class="f" d="M172.43,73.53c-.6-.06-1.01-.58-.93-1.2,.08-.58,.63-1.02,1.21-.95,.57,.07,1.03,.65,.95,1.21-.07,.57-.63,1-1.23,.94Z"/><path class="f" d="M185.96,85.58c0-.62,.46-1.08,1.08-1.06,.58,.02,1.08,.52,1.08,1.1s-.52,1.07-1.11,1.08c-.55,.01-1.05-.51-1.05-1.12Z"/><path class="f" d="M203.23,116.48c-.61-.03-1.04-.51-.99-1.14,.05-.59,.58-1.08,1.14-1.03,.59,.05,1.07,.58,1.02,1.16-.07,.58-.57,1.03-1.17,1.01Z"/><path class="f" d="M185.86,192.89c-.05,.6-.55,1.06-1.15,1.02-.61-.03-1.02-.51-.99-1.16,.03-.6,.52-1.05,1.14-1.02,.59,.03,1.05,.56,1,1.16Z"/><path class="f" d="M56.77,176.22c.01,.62-.44,1.08-1.07,1.07-.6-.01-1.09-.5-1.08-1.09,.01-.59,.5-1.08,1.09-1.09,.59,0,1.06,.48,1.06,1.11Z"/><path class="f" d="M70.44,81.36c.02,.62-.42,1.13-1.01,1.16-.58,.02-1.12-.46-1.15-1.03-.03-.57,.45-1.12,1.03-1.15,.62-.03,1.12,.41,1.13,1.02Z"/><path class="f" d="M63.99,88.71c.02,.62-.43,1.08-1.06,1.08s-1.13-.49-1.13-1.05,.5-1.1,1.08-1.11c.58,0,1.09,.49,1.11,1.08Z"/><path class="f" d="M205.05,129.75c0-.62,.47-1.07,1.09-1.05,.58,.02,1.08,.52,1.07,1.11,0,.56-.53,1.07-1.11,1.07-.56-.01-1.05-.53-1.05-1.13Z"/><path class="f" d="M182.38,196.36c-.02,.59-.52,1.04-1.14,1.01-.57-.03-1.05-.56-1.02-1.15,.03-.57,.57-1.06,1.15-1.03,.55,.03,1.03,.57,1.01,1.17Z"/><path class="f" d="M203.74,160.05c-.62,.02-1.09-.42-1.1-1.04,0-.6,.47-1.1,1.06-1.1s1.1,.46,1.12,1.05c.02,.56-.49,1.07-1.08,1.09Z"/><path class="f" d="M184.78,81.98c-.01,.59-.5,1.12-1.06,1.12-.58,0-1.11-.5-1.11-1.07s.5-1.1,1.08-1.1c.61-.01,1.1,.45,1.09,1.05Z"/><path class="f" d="M169.73,204.23c.6-.01,1.16,.55,1.14,1.16-.02,.52-.51,1-1.05,1.02-.59,.02-1.1-.44-1.12-1.04-.03-.58,.47-1.13,1.03-1.14Z"/><path class="f" d="M205.9,154.27c-.02,.59-.53,1.1-1.09,1.09-.58-.02-1.06-.51-1.06-1.12s.49-1.06,1.1-1.06,1.07,.46,1.05,1.09Z"/><path class="f" d="M173.77,203.59c-.6-.02-1.07-.5-1.06-1.1,.01-.57,.54-1.06,1.12-1.05,.56,.02,1.06,.53,1.05,1.12,.01,.59-.49,1.05-1.11,1.03Z"/><path class="f" d="M195.61,96.43c.56,.02,1.05,.56,1.02,1.15-.03,.59-.54,1.06-1.14,1.02-.54-.03-1.03-.51-1.04-1.04-.01-.6,.55-1.15,1.16-1.13Z"/><path class="f" d="M70.42,194.54c.59-.02,1.13,.44,1.17,1.01,.03,.57-.45,1.12-1.02,1.15-.58,.03-1.12-.44-1.15-1.02-.04-.62,.4-1.12,1-1.14Z"/><path class="f" d="M58.2,179.34c.58,.01,1.1,.52,1.09,1.09-.01,.58-.51,1.09-1.09,1.09-.62,0-1.09-.46-1.08-1.07,.02-.6,.52-1.12,1.08-1.11Z"/><path class="f" d="M75.2,198.88c.02,.54-.51,1.08-1.09,1.09-.59,0-1.08-.48-1.09-1.08,0-.57,.51-1.11,1.07-1.1,.57,.01,1.09,.52,1.11,1.09Z"/><path class="f" d="M53.94,105.55c-.02,.58-.56,1.09-1.12,1.05-.57-.04-1.06-.57-1.05-1.14,.01-.56,.55-1.06,1.14-1.03,.59,.02,1.06,.51,1.03,1.12Z"/><path class="f" d="M188.03,188.11c.58,.02,1.08,.5,1.08,1.09,.01,.58-.5,1.09-1.09,1.07-.59-.02-1.07-.5-1.07-1.1,0-.62,.46-1.08,1.08-1.06Z"/><path class="f" d="M201.23,163.66c0-.62,.46-1.07,1.08-1.05,.58,.02,1.08,.51,1.08,1.1s-.52,1.09-1.1,1.06c-.58-.02-1.05-.51-1.06-1.11Z"/><path class="f" d="M84.73,70.46c-.55,0-1.07-.54-1.05-1.12,.02-.59,.51-1.07,1.11-1.06,.58,.01,1.1,.55,1.07,1.11-.04,.57-.56,1.07-1.13,1.07Z"/><path class="f" d="M61.99,184.53c-.01,.61-.49,1.05-1.12,1.01-.59-.03-1.1-.55-1.06-1.11,.03-.58,.53-1.04,1.14-1.03,.59,.02,1.06,.52,1.04,1.13Z"/><path class="f" d="M177.68,200.59c-.59-.01-1.12-.5-1.12-1.06s.51-1.1,1.08-1.11c.57,0,1.1,.51,1.1,1.08,0,.62-.45,1.09-1.06,1.09Z"/><path class="f" d="M205.65,148.37c.6-.01,1.11,.45,1.12,1.04,.01,.6-.44,1.11-1.03,1.14-.55,.03-1.08-.47-1.11-1.06-.03-.62,.4-1.1,1.02-1.12Z"/><path class="f" d="M66.03,83.92c.59,0,1.09,.48,1.11,1.07,.02,.57-.49,1.1-1.07,1.09-.58-.01-1.08-.49-1.09-1.08-.03-.62,.42-1.08,1.05-1.08Z"/><path class="f" d="M49.9,163.85c-.61-.01-1.05-.48-1.02-1.11,.03-.59,.54-1.09,1.11-1.07,.58,.03,1.04,.52,1.03,1.14-.01,.58-.51,1.05-1.12,1.04Z"/><path class="f" d="M199.66,172.73c-.01,.59-.51,1.11-1.07,1.11-.57-.01-1.1-.52-1.1-1.09s.51-1.09,1.09-1.09c.62,.01,1.1,.47,1.08,1.07Z"/><path class="f" d="M64.98,188.41c0,.56-.54,1.07-1.12,1.06-.58-.01-1.09-.52-1.08-1.1,.01-.59,.5-1.07,1.1-1.06,.58,.02,1.1,.53,1.1,1.1Z"/><path class="f" d="M191.19,89.42c0,.57-.5,1.08-1.09,1.08s-1.08-.5-1.09-1.09c-.01-.58,.48-1.07,1.09-1.07,.6,.01,1.08,.48,1.09,1.08Z"/><path class="f" d="M196.29,178.15c-.59-.02-1.06-.52-1.04-1.12,.02-.6,.49-1.02,1.13-1,.61,.02,1.07,.5,1.04,1.1-.04,.6-.52,1.05-1.13,1.02Z"/><path class="f" d="M177.54,75.45c-.01,.59-.5,1.07-1.1,1.06-.56-.01-1.07-.53-1.06-1.11,.01-.56,.53-1.07,1.11-1.07,.55,.01,1.06,.54,1.05,1.12Z"/><path class="f" d="M54.93,102.18c-.56-.03-1.04-.57-1-1.16,.04-.59,.54-1.05,1.14-1.01,.57,.03,1.05,.57,1.02,1.15-.04,.56-.59,1.05-1.16,1.02Z"/><path class="f" d="M180.18,79.7c-.55,0-1.06-.53-1.05-1.12,.01-.59,.5-1.07,1.1-1.06,.56,.01,1.07,.53,1.06,1.11,0,.56-.53,1.07-1.11,1.07Z"/><path class="f" d="M61.11,92.73c-.03,.58-.54,1.07-1.12,1.05-.59-.03-1.06-.52-1.04-1.12,.02-.57,.55-1.09,1.11-1.06,.58,.04,1.08,.56,1.05,1.13Z"/><path class="f" d="M49.65,158.16c-.03,.56-.57,1.06-1.14,1.03-.56-.02-1.04-.57-1.01-1.15,.03-.59,.53-1.05,1.13-1.02,.56,.03,1.05,.56,1.02,1.14Z"/><path class="f" d="M67.11,193.16c-.59,.02-1.09-.44-1.11-1.05-.02-.57,.46-1.09,1.05-1.11,.56-.02,1.09,.47,1.12,1.05,.03,.55-.48,1.09-1.06,1.11Z"/><path class="f" d="M51.56,168.45c-.59-.02-1.06-.52-1.04-1.12,.02-.57,.55-1.09,1.11-1.06,.58,.03,1.07,.55,1.05,1.12-.04,.59-.55,1.08-1.12,1.06Z"/><path class="f" d="M204.56,121.23c-.57,.01-1.1-.49-1.11-1.06-.01-.59,.46-1.08,1.06-1.1,.57-.01,1.11,.49,1.12,1.05,0,.57-.5,1.1-1.07,1.11Z"/><path class="f" d="M80.86,204.77c.01-.61,.48-1.05,1.1-1.02,.59,.03,1.1,.54,1.07,1.09-.03,.53-.59,1.05-1.14,1.05-.57-.01-1.05-.52-1.03-1.12Z"/><path class="f" d="M191.02,186.35c-.59,0-1.03-.4-1.05-.99-.03-.61,.43-1.13,1.02-1.14,.57-.01,1.14,.51,1.13,1.06,0,.58-.49,1.07-1.1,1.07Z"/><path class="f" d="M206.39,140.58c-.6-.05-1.01-.56-.94-1.19,.07-.56,.57-.98,1.11-.94,.57,.05,1.06,.6,1.02,1.17-.04,.57-.58,1.01-1.19,.96Z"/><path class="f" d="M56.32,96.81c0-.62,.46-1.07,1.09-1.05,.56,.02,1.03,.46,1.05,1.01,.02,.56-.49,1.1-1.07,1.12-.57,.03-1.07-.46-1.07-1.08Z"/><path class="f" d="M54.57,171.86c0,.62-.46,1.06-1.1,1.04-.56-.02-1.03-.47-1.04-1.02-.01-.57,.49-1.1,1.07-1.11,.58-.02,1.07,.48,1.07,1.09Z"/><path class="f" d="M205.47,123.87c.61,.01,1.06,.48,1.04,1.1-.03,.56-.47,1.02-1.03,1.03-.57,.01-1.1-.49-1.11-1.08-.01-.57,.49-1.06,1.1-1.05Z"/><path class="f" d="M194.86,181.25c.02,.62-.43,1.09-1.06,1.08-.56-.01-1.05-.43-1.08-.98-.04-.56,.45-1.12,1.03-1.15,.58-.04,1.09,.44,1.11,1.05Z"/><path class="f" d="M201.88,143.66c0,.63-.44,1.11-1.04,1.09-.54-.01-.98-.48-.98-1.06s.51-1.12,1.06-1.1c.55,.03,.96,.47,.96,1.07Z"/><path class="f" d="M51.42,138.03c-.55,.02-1.04-.45-1.03-1.02,.01-.51,.44-.97,.96-.98,.59-.02,1.07,.4,1.07,.96,0,.59-.4,1.03-1,1.04Z"/><path class="f" d="M177.28,84.22c-.6,.02-1.03-.38-1.02-.99,0-.54,.38-.98,.91-1.01,.54-.04,1.05,.4,1.09,.96,.04,.55-.39,1.02-.98,1.04Z"/><path class="f" d="M87.29,73.52c.01-.56,.47-1,1.04-.96,.49,.03,.94,.49,.95,.98,.01,.56-.43,1.01-1.01,1-.57-.01-.99-.43-.98-1.02Z"/><path class="f" d="M54.94,159.65c.55,.01,1.01,.49,.98,1.04-.03,.53-.52,.98-1.08,.95-.51-.02-.91-.44-.92-.99,0-.56,.44-1.01,1.02-1Z"/><path class="f" d="M53.14,127.53c-.01,.55-.48,.99-1.05,.96-.51-.03-.93-.46-.94-.98-.01-.54,.45-1,1.02-1.01,.55,0,.99,.44,.97,1.03Z"/><path class="f" d="M69.62,185.75c-.02,.55-.52,.99-1.07,.94-.48-.05-.93-.53-.92-1.01,.01-.56,.47-1,1.04-.98,.57,.02,.98,.46,.95,1.05Z"/><path class="f" d="M199.86,119.89c-.02,.56-.49,.99-1.05,.95-.49-.04-.94-.5-.93-1,0-.57,.44-1,1.02-.99,.57,.02,.98,.45,.96,1.04Z"/><path class="f" d="M165.85,75.49c-.53,0-.97-.41-.99-.94-.03-.59,.4-1.05,.98-1.05,.57,.01,1.04,.48,1.01,1.03-.03,.5-.5,.96-1,.96Z"/><path class="f" d="M197.59,114.25c.57,.02,1.03,.49,.99,1.05-.04,.49-.52,.95-1.02,.94-.56-.01-1.01-.48-.97-1.06,.04-.54,.47-.95,1-.93Z"/><path class="f" d="M63.99,177.91c.02,.53-.37,.97-.92,1-.57,.04-1.05-.38-1.07-.96-.02-.49,.42-.98,.93-1.03,.54-.04,1.04,.41,1.06,.99Z"/><path class="f" d="M198,162.47c-.01,.54-.5,1-1.07,.98-.52-.02-.92-.45-.92-1s.47-1.02,1.05-.99c.48,.03,.95,.51,.94,1.01Z"/><path class="f" d="M61.48,101.44c-.57-.02-1.01-.47-.98-1.03,.02-.52,.45-.94,.97-.95,.57-.01,1.08,.52,1.03,1.1-.04,.52-.47,.9-1.02,.88Z"/><path class="f" d="M69.92,89.78c-.56,.02-1.06-.43-1.06-.99,0-.49,.45-.97,.96-1,.56-.03,1.04,.42,1.03,1,0,.54-.4,.97-.93,.99Z"/><path class="f" d="M71.81,188.31c.54-.01,.99,.38,1.02,.9,.03,.53-.44,1.07-.98,1.08-.52,.02-1.03-.49-1.02-1.04,0-.51,.42-.93,.98-.94Z"/><path class="f" d="M190.95,174.52c.5-.03,1.02,.45,1.04,.99,.02,.51-.37,.95-.9,.99-.57,.05-1.06-.35-1.09-.9-.03-.52,.42-1.05,.95-1.08Z"/><path class="f" d="M51.64,131.29c.54-.01,.98,.36,1.01,.89,.04,.57-.46,1.1-1.05,1.09-.51-.01-.94-.43-.96-.96-.01-.55,.42-1,1-1.02Z"/><path class="f" d="M61.57,173.78c.01,.53-.48,1.06-1.01,1.05-.48-.01-.95-.46-.99-.97-.04-.56,.41-1.02,1.01-1.01,.54,0,.98,.4,.99,.93Z"/><path class="f" d="M64.06,95.42c.57,.02,1,.5,.96,1.08-.04,.54-.47,.94-1.01,.91-.57-.03-1.03-.52-.98-1.06,.04-.5,.53-.95,1.03-.93Z"/><path class="f" d="M179.34,189.72c.53,0,.96,.41,.98,.95,.02,.52-.48,1.05-1.02,1.04-.55-.01-1-.5-.97-1.07,.03-.52,.46-.92,1.01-.92Z"/><path class="f" d="M57.54,165.16c-.01,.54-.5,1.01-1.05,.98-.55-.03-.99-.51-.95-1.06,.04-.5,.47-.92,.99-.93,.53-.01,1.02,.46,1.01,1.01Z"/><path class="f" d="M193.31,172.28c-.56,.02-1.06-.43-1.06-.99,0-.49,.45-.97,.96-1,.56-.03,1.04,.42,1.03,1,0,.55-.39,.98-.93,.99Z"/><path class="f" d="M175.79,192.97c.54-.02,1.03,.43,1.04,.98,.01,.54-.46,1.02-1.01,1.02-.5,0-.95-.42-.99-.93-.04-.54,.41-1.04,.96-1.07Z"/><path class="f" d="M189.44,96.97c.57,0,1.03,.43,1.02,.99-.01,.56-.47,1.01-1.03,.98-.54-.03-1-.52-.98-1.06,.03-.51,.45-.91,.99-.91Z"/><path class="f" d="M54.14,117.11c.49,.02,.96,.49,.97,.98,.01,.54-.47,1.01-1.04,1-.56-.01-.99-.48-.95-1.07,.04-.52,.48-.93,1.02-.91Z"/><path class="f" d="M51.91,147.59c-.54,0-.98-.4-.99-.93-.02-.56,.43-1.06,.98-1.06s1.04,.52,1.01,1.05c-.03,.52-.46,.94-1,.94Z"/><path class="f" d="M77.64,82.03c-.01,.52-.43,.93-.99,.94-.59,.01-1.05-.44-1.01-1.01,.03-.51,.48-.97,.98-.98,.51-.01,1.02,.51,1.02,1.05Z"/><path class="f" d="M82.61,199.73c-.54-.03-.98-.54-.94-1.1,.04-.52,.48-.91,1.03-.89,.56,.02,1.01,.52,.95,1.08-.05,.49-.55,.94-1.04,.91Z"/><path class="f" d="M95.1,206.95c-.53,0-.97-.41-.99-.94-.03-.59,.39-1.05,.98-1.04,.57,.01,1.04,.47,1.01,1.03-.03,.49-.5,.95-1,.95Z"/><path class="f" d="M75.21,193.64c-.54-.02-1-.5-.97-1.05,.03-.54,.53-.99,1.08-.94,.5,.04,.93,.5,.93,1-.01,.53-.5,1.01-1.04,.99Z"/><path class="f" d="M79.84,195.75c.02,.52-.38,.98-.9,1.03-.58,.05-1.07-.37-1.09-.94-.01-.56,.44-1.05,1-1.05,.49,.01,.97,.46,.99,.96Z"/><path class="f" d="M161.69,73.09c-.5,.01-.98-.41-1.02-.93-.04-.54,.41-1.04,.99-1.06,.53-.02,.98,.38,1.01,.91,.02,.56-.42,1.06-.98,1.08Z"/><path class="f" d="M200.43,147.55c.53,.02,.95,.42,.95,.95s-.47,1.02-1.02,1.03c-.55,.01-1.01-.46-.99-1.02,.01-.55,.47-.97,1.06-.96Z"/><path class="f" d="M195.05,106.29c-.01,.56-.44,1.02-1,1.03-.53,.01-1-.49-.98-1.04,.02-.51,.45-.95,.96-.96,.59-.01,1.03,.39,1.02,.97Z"/><path class="f" d="M66.7,181.92c-.01,.54-.5,1.01-1.04,.98-.54-.02-1-.52-.96-1.06,.04-.5,.49-.93,.99-.94,.54,0,1.02,.48,1.01,1.02Z"/><path class="f" d="M54.57,156.04c-.01,.54-.41,.97-.94,.98-.55,.01-1.06-.49-1.03-1.01,.04-.55,.53-1.02,1.07-.98,.52,.02,.91,.45,.9,1.01Z"/><path class="f" d="M198.41,158.85c-.55,0-.97-.4-.99-.93-.01-.55,.47-1.06,1-1.03,.55,.03,1.02,.51,1,1.06-.02,.51-.45,.9-1.01,.9Z"/><path class="f" d="M93.46,71.31c-.05,.56-.55,1.02-1.08,.96-.54-.06-.91-.49-.89-1.03,.02-.58,.49-1,1.06-.95,.53,.06,.95,.51,.91,1.02Z"/><path class="f" d="M59.38,169.55c0,.52-.42,.97-.94,.99-.56,.02-1.05-.44-1.03-1,.01-.54,.51-1.02,1.06-1,.49,.01,.91,.46,.91,1.01Z"/><path class="f" d="M87.65,201.35c.03,.51-.46,1.03-1.02,1.04-.52,.01-.95-.39-.97-.94-.03-.57,.41-1.04,.99-1.04,.49-.01,.98,.44,1,.94Z"/><path class="f" d="M91.74,203.77c.01,.55-.37,.99-.9,1.02-.54,.03-1.07-.43-1.09-.96-.02-.51,.5-1.04,1.03-1.02,.53,.01,.95,.43,.96,.96Z"/><path class="f" d="M157.38,68.96c.54,.02,1.02,.51,1,1.05-.02,.52-.45,.93-1,.92-.58-.01-1-.44-.98-1.04,.02-.53,.45-.95,.98-.93Z"/><path class="f" d="M74.16,85.24c.02,.53-.45,1.04-1,1.06-.52,.02-.97-.39-1.01-.93-.04-.56,.41-1.05,.98-1.05s1.01,.41,1.03,.92Z"/><path class="f" d="M96.86,70.24c-.54,.02-1.04-.45-1.05-1-.01-.52,.4-.96,.94-.97,.58-.02,1.03,.39,1.04,.98,0,.53-.4,.97-.93,.99Z"/><path class="f" d="M53,123.75c-.55,.01-1.03-.44-1.04-1.01-.01-.48,.44-.95,.97-.98,.52-.04,1.03,.46,1.03,1.02-.01,.52-.43,.96-.96,.97Z"/><path class="f" d="M51.48,142.79c-.54-.01-.97-.42-.96-.95,0-.55,.5-1.06,1.03-1.01,.55,.04,1.01,.55,.97,1.08-.04,.51-.48,.89-1.04,.88Z"/><path class="f" d="M201.02,133.03c.53-.01,1.01,.48,1,1.05,0,.49-.47,.95-.99,.95s-.97-.42-1-.94c-.02-.55,.42-1.05,.99-1.06Z"/><path class="f" d="M59.15,105.65c-.54-.02-.95-.44-.93-.98,.02-.54,.51-1.01,1.06-.99,.52,.02,.93,.45,.92,1-.02,.58-.45,.99-1.05,.97Z"/><path class="f" d="M201.62,129.25c.02,.52-.48,1.01-1.04,1.01-.5,0-.93-.44-.95-.98-.01-.53,.37-.96,.92-.99,.57-.04,1.05,.38,1.07,.96Z"/><path class="f" d="M200.87,124.51c0,.54-.39,.98-.92,1-.54,.02-1.06-.46-1.07-.99-.01-.48,.45-.97,.95-1,.55-.04,1.03,.41,1.04,.99Z"/><path class="f" d="M200.53,153.22c0,.56-.48,1.03-1.04,1-.51-.02-.95-.46-.96-.98-.01-.51,.43-.99,.93-1,.56-.03,1.07,.44,1.07,.98Z"/><path class="f" d="M57.28,110.05c-.54,.02-1.06-.45-1.08-.98-.01-.47,.44-.97,.95-1,.55-.04,1.04,.41,1.04,.98,.01,.53-.38,.97-.91,1Z"/><path class="f" d="M183.89,91.18c-.54,.02-1.06-.45-1.08-.98-.01-.48,.44-.97,.94-1.01,.55-.04,1.04,.41,1.05,.98,.01,.54-.38,.98-.91,1.01Z"/><path class="f" d="M182.55,188.16c-.52-.01-.95-.43-.96-.96-.02-.52,.49-1.01,1.04-1.01s.98,.5,.94,1.08c-.03,.52-.46,.9-1.02,.89Z"/><path class="f" d="M173.61,79.11c.5,0,1,.43,1.03,.92,.03,.52-.45,1.04-1,1.05-.51,.01-.99-.42-1.02-.92-.03-.55,.43-1.05,.99-1.05Z"/><path class="f" d="M202.07,138.81c-.01,.58-.44,1-1.04,.98-.54-.02-.95-.44-.94-.97,.02-.54,.51-1.02,1.06-1,.52,.01,.93,.44,.92,.99Z"/><path class="f" d="M172.1,197.99c-.54-.01-.98-.41-.99-.93-.01-.53,.47-1.03,1.02-1.03,.52-.01,1,.51,.97,1.07-.01,.51-.44,.9-1,.89Z"/><path class="f" d="M81.3,78.98c-.02,.54-.43,.96-.96,.95-.54-.01-1.05-.51-1.03-1.03,.02-.49,.5-.95,.99-.96,.57,0,1.02,.46,1,1.04Z"/><path class="f" d="M55.52,114.5c-.54,0-.97-.39-.99-.92-.02-.55,.46-1.06,.99-1.04,.51,.02,.98,.45,1,.94,.02,.56-.42,1.02-1,1.02Z"/><path class="f" d="M186.61,183.52c-.01,.56-.49,1.01-1.06,.96-.48-.04-.92-.52-.92-1.03,.01-.52,.53-.99,1.08-.95,.53,.04,.91,.47,.9,1.02Z"/><path class="f" d="M195.95,111.68c-.54-.02-.95-.42-.94-.96,0-.58,.46-1.04,1.01-1,.55,.04,1,.54,.96,1.08-.05,.52-.48,.9-1.03,.88Z"/><path class="f" d="M192.9,102.07c-.03,.55-.52,1-1.07,.96-.51-.04-.93-.48-.93-1.01s.52-1.01,1.07-.96c.52,.05,.95,.51,.93,1.01Z"/><path class="f" d="M159.99,205.72c-.5,.01-.93-.41-.96-.96-.03-.57,.4-1.01,.99-1.01,.54,0,.97,.4,.98,.93,.01,.54-.46,1.03-1.01,1.04Z"/><path class="f" d="M195.25,165.96c.56,0,1.02,.48,1,1.04-.02,.51-.45,.94-.98,.96-.54,.02-1.02-.48-.99-1.04,.02-.52,.46-.97,.97-.96Z"/><path class="f" d="M83.25,76.04c.04-.53,.48-.94,1-.91,.54,.03,1,.54,.95,1.08-.05,.51-.51,.93-1.02,.91-.55-.01-.97-.49-.93-1.08Z"/><path class="f" d="M189.41,179.58c.01,.55-.46,1.02-1.03,1.01-.5-.01-.94-.46-.95-.98-.01-.51,.42-.98,.92-1.01,.55-.03,1.05,.42,1.06,.98Z"/><path class="f" d="M165.2,202.4c.02,.48-.43,.95-.95,.99-.56,.04-1.02-.39-1.02-.98,0-.53,.39-.96,.92-1,.53-.05,1.04,.43,1.05,.99Z"/><path class="f" d="M52.61,150.38c.53,0,.94,.39,.97,.94,.03,.58-.41,1.04-.98,1.02-.54-.02-1.01-.5-.99-1.05,.01-.5,.46-.91,1-.91Z"/><path class="f" d="M66.81,91.55c.55-.01,.98,.37,1.01,.9,.03,.54-.44,1.07-.97,1.07s-.99-.43-1.02-.93c-.03-.55,.41-1.03,.98-1.04Z"/><path class="f" d="M168.86,77.12c.01-.56,.48-1.01,1.05-.97,.48,.03,.92,.51,.92,1.02s-.52,.99-1.07,.96c-.52-.02-.91-.45-.9-1.01Z"/><path class="f" d="M180.66,85.61c.51,.01,.97,.45,.98,.95,.01,.55-.45,1.03-1.01,1.02-.55-.01-1.02-.49-.99-1.05,.04-.49,.51-.92,1.02-.92Z"/><path class="f" d="M168.26,200.8c-.54,0-.97-.39-.99-.92-.02-.55,.46-1.06,.99-1.04,.51,.01,.98,.45,1,.94,.02,.56-.42,1.02-1,1.02Z"/><path class="f" d="M187.76,94c-.01,.51-.44,.95-.96,.97-.55,.02-1.03-.46-1.02-1.01,.01-.55,.51-1.01,1.06-.97,.51,.04,.93,.5,.92,1.01Z"/><path class="f" d="M195.51,141.89c.49-.02,.88,.33,.93,.87,.04,.55-.32,1.03-.84,1.07-.51,.05-.97-.37-.99-.92s.37-.99,.9-1.02Z"/><path class="f" d="M192.56,161.4c.02,.48-.44,.94-.96,.93-.47-.01-.88-.41-.89-.89-.01-.5,.44-.95,.96-.94,.43,0,.87,.43,.89,.9Z"/><path class="f" d="M131.16,67.88c.49,0,.89,.4,.89,.9s-.41,.89-.9,.9c-.5,.01-.99-.47-.95-.96,.02-.46,.45-.84,.96-.84Z"/><path class="f" d="M79.64,188.57c-.02,.46-.47,.89-.93,.89-.52-.01-.92-.46-.88-1.01,.04-.49,.47-.87,.95-.83,.47,.03,.88,.49,.86,.95Z"/><path class="f" d="M62.53,166.36c-.47,.03-.9-.36-.95-.85-.04-.52,.38-1,.9-1,.47,0,.88,.41,.89,.9,.03,.49-.35,.93-.84,.95Z"/><path class="f" d="M190.9,110.4c.02,.48-.37,.91-.86,.94-.47,.03-.92-.36-.95-.85-.03-.51,.41-1.01,.91-1,.46,0,.88,.42,.9,.91Z"/><path class="f" d="M174.67,87.39c-.02,.46-.45,.87-.94,.87-.52,.01-.96-.46-.91-.98,.04-.48,.48-.86,.97-.82,.48,.04,.9,.47,.88,.93Z"/><path class="f" d="M94.44,75.39c.47,0,.88,.41,.9,.9,.01,.49-.37,.92-.85,.95-.51,.03-.96-.42-.95-.95,.01-.48,.42-.9,.9-.9Z"/><path class="f" d="M185.63,101.12c.52,.01,.97,.48,.93,.98-.04,.48-.46,.87-.95,.85-.49-.03-.86-.42-.86-.93s.39-.92,.88-.9Z"/><path class="f" d="M57.05,141.63c.46,.03,.88,.5,.84,.96-.04,.48-.46,.88-.94,.87-.52-.01-.94-.48-.88-1.01,.05-.47,.5-.85,.98-.82Z"/><path class="f" d="M90.33,77.74c.49,.02,.91,.42,.91,.9,0,.5-.49,.94-1.01,.9-.49-.04-.88-.47-.85-.95,.03-.47,.46-.87,.95-.85Z"/><path class="f" d="M163.35,78.76c-.02,.51-.5,.95-1.01,.9-.42-.04-.82-.45-.83-.88-.01-.51,.45-.97,.97-.95,.49,.02,.89,.44,.87,.93Z"/><path class="f" d="M150.22,203.38c.01,.5-.35,.91-.85,.94-.51,.04-.97-.41-.96-.94,.01-.46,.43-.87,.92-.89,.49-.02,.89,.37,.89,.89Z"/><path class="f" d="M103.11,71.68c.51-.02,.89,.34,.89,.86s-.36,.92-.83,.94c-.5,.02-.97-.41-.97-.93,0-.46,.4-.85,.91-.87Z"/><path class="f" d="M179.91,181.01c.51-.03,1,.41,.99,.91,0,.46-.43,.91-.89,.92-.48,.01-.89-.37-.91-.87-.02-.52,.33-.93,.81-.96Z"/><path class="f" d="M99.59,74.34c-.02,.51-.42,.89-.91,.86-.48-.03-.9-.45-.89-.91,.01-.51,.49-.96,.99-.91,.48,.05,.83,.45,.81,.96Z"/><path class="f" d="M76.54,90.54c.01,.48-.38,.87-.9,.87s-.91-.37-.93-.86c-.02-.49,.46-.97,.96-.94,.45,.02,.86,.44,.87,.93Z"/><path class="f" d="M140.54,70.98c-.52,0-.99-.46-.95-.95,.03-.46,.48-.89,.93-.88,.48,.01,.87,.41,.87,.91,.01,.52-.36,.93-.85,.92Z"/><path class="f" d="M62.62,109.28c.49,.02,.95,.51,.92,1-.03,.46-.46,.82-.98,.8-.51-.02-.87-.4-.85-.92,.02-.47,.44-.9,.91-.88Z"/><path class="f" d="M107.63,72.04c-.52-.02-.92-.47-.87-1.01,.04-.5,.45-.84,.96-.79,.48,.04,.88,.48,.84,.95-.02,.48-.45,.88-.93,.86Z"/><path class="f" d="M153.72,200.77c.48-.01,.9,.38,.92,.87,.02,.48-.35,.91-.84,.94-.51,.04-.98-.39-.97-.91,0-.48,.4-.89,.89-.9Z"/><path class="f" d="M79,86.27c.46-.01,.86,.39,.88,.91,.02,.48-.36,.9-.86,.92-.47,.02-.9-.36-.94-.85-.05-.49,.39-.96,.92-.98Z"/><path class="f" d="M70.34,177.84c-.02,.49-.43,.88-.92,.86-.51-.02-.92-.41-.91-.88,.01-.52,.48-.97,.98-.93,.49,.05,.88,.47,.85,.95Z"/><path class="f" d="M58.25,124.62c-.45-.02-.88-.47-.87-.94,.01-.5,.49-.92,1.01-.89,.48,.03,.83,.46,.78,.97-.03,.5-.44,.89-.93,.86Z"/><path class="f" d="M166.05,193.86c.51-.03,1,.41,1,.91,0,.46-.43,.91-.89,.92-.48,.02-.89-.36-.92-.87-.02-.52,.32-.94,.81-.96Z"/><path class="f" d="M71.62,94.12c-.02-.49,.34-.9,.84-.94,.52-.04,.98,.38,.97,.91-.01,.47-.41,.89-.89,.9-.49,.01-.9-.38-.92-.87Z"/><path class="f" d="M86.09,193.62c.52,.03,.9,.49,.84,1.04-.05,.46-.42,.81-.87,.78-.52-.01-.97-.48-.92-.98,.05-.47,.5-.88,.95-.85Z"/><path class="f" d="M145.99,71.16c.02,.48-.35,.9-.85,.94-.52,.03-.98-.4-.97-.92,.01-.47,.42-.89,.9-.89,.49-.01,.9,.38,.92,.87Z"/><path class="f" d="M94.14,198.58c.47-.01,.91,.39,.93,.87,.02,.48-.36,.91-.85,.94-.5,.02-.95-.34-.98-.79-.03-.53,.39-1,.9-1.01Z"/><path class="f" d="M149.63,71.73c.48,.01,.91,.41,.91,.89,.01,.52-.42,.94-.97,.92-.5-.02-.87-.4-.85-.92,.02-.48,.43-.9,.91-.89Z"/><path class="f" d="M82.6,83.16c.47,.01,.88,.42,.88,.91s-.39,.89-.88,.9c-.52,.01-.96-.42-.93-.95,.03-.48,.44-.87,.93-.86Z"/><path class="f" d="M185.45,173.28c.48-.02,.9,.36,.93,.85,.03,.48-.33,.91-.82,.95-.52,.05-.98-.36-.99-.89,0-.47,.39-.89,.88-.91Z"/><path class="f" d="M194.04,119.33c-.01,.51-.38,.92-.86,.92-.51,.01-.96-.44-.94-.96,.01-.46,.42-.84,.94-.85,.5,.01,.87,.37,.86,.89Z"/><path class="f" d="M170.14,83.34c.48-.02,.91,.35,.95,.83,.04,.51-.38,.98-.91,.97-.48,0-.89-.4-.9-.89-.01-.47,.37-.88,.86-.91Z"/><path class="f" d="M66.83,172.94c.45-.02,.9,.4,.94,.87,.04,.48-.42,.96-.94,.96-.48,0-.86-.39-.86-.91s.36-.9,.86-.92Z"/><path class="f" d="M60.34,119.12c-.02,.48-.43,.9-.9,.89-.52,0-.93-.44-.9-.99,.03-.5,.42-.86,.93-.83,.48,.04,.89,.46,.87,.93Z"/><path class="f" d="M170.83,191.88c.01,.48-.38,.88-.88,.9-.51,.02-.93-.33-.95-.82-.02-.51,.42-.99,.92-.98,.46,.02,.9,.44,.91,.9Z"/><path class="f" d="M188.75,170.07c0,.45-.43,.91-.88,.93-.51,.02-.94-.42-.92-.96,.02-.51,.41-.89,.9-.87,.48,.02,.9,.44,.9,.9Z"/><path class="f" d="M187.99,107.04c-.49,.02-.91-.34-.94-.84-.03-.47,.34-.91,.83-.96,.49-.05,.97,.37,1,.9,.02,.47-.37,.87-.89,.9Z"/><path class="f" d="M65.58,105.97c-.02,.47-.44,.87-.93,.86-.52-.01-.93-.47-.88-1,.05-.48,.48-.84,.97-.81,.48,.04,.87,.46,.84,.95Z"/><path class="f" d="M122.54,68.78c-.02,.48-.43,.9-.9,.89-.48,0-.91-.41-.92-.88-.01-.52,.42-.94,.97-.92,.5,.01,.87,.39,.85,.91Z"/><path class="f" d="M159.23,76.47c-.02,.48-.44,.87-.93,.86-.52-.01-.93-.47-.88-1,.05-.48,.48-.85,.97-.81,.48,.04,.86,.46,.84,.95Z"/><path class="f" d="M57.46,146.36c.48,.01,.89,.4,.9,.89,.01,.48-.38,.9-.87,.92-.52,.02-.96-.41-.94-.94,.01-.48,.42-.87,.91-.87Z"/><path class="f" d="M76.27,185.19c-.02,.5-.41,.91-.88,.9-.51-.01-.95-.47-.92-.98,.03-.47,.44-.83,.95-.83,.51,.01,.87,.38,.85,.91Z"/><path class="f" d="M57.92,133.06c.02,.46-.37,.87-.89,.9-.52,.03-.9-.31-.92-.83-.02-.51,.33-.93,.81-.97,.5-.04,.98,.39,1,.9Z"/><path class="f" d="M153.99,75.29c-.49-.02-.92-.52-.87-1.04,.05-.47,.48-.81,1-.76,.49,.04,.87,.47,.83,.95-.04,.46-.5,.88-.96,.86Z"/><path class="f" d="M193.08,157.81c-.48-.01-.88-.41-.89-.9,0-.48,.38-.89,.87-.91,.52-.02,.96,.42,.94,.95-.02,.48-.43,.87-.92,.86Z"/><path class="f" d="M196.62,138.05c0,.47-.41,.89-.89,.9-.48,.01-.9-.38-.92-.86-.02-.52,.4-.97,.93-.95,.48,.01,.88,.42,.88,.91Z"/><path class="f" d="M195.06,146.76c.5,.01,.9,.4,.9,.89s-.51,.96-1,.91c-.46-.04-.85-.49-.84-.97,.01-.48,.42-.85,.94-.83Z"/><path class="f" d="M195.54,134.22c-.48-.03-.9-.44-.9-.9,0-.5,.49-.97,.98-.92,.48,.04,.84,.45,.83,.96-.02,.5-.41,.89-.91,.86Z"/><path class="f" d="M143.91,204.81c.01-.51,.38-.87,.9-.86,.51,.01,.93,.38,.93,.85,0,.49-.48,.96-.98,.95-.46-.02-.86-.44-.85-.94Z"/><path class="f" d="M195.14,152.31c0,.46-.42,.87-.91,.89-.48,.01-.92-.37-.94-.85-.03-.51,.42-.97,.95-.94,.45,.01,.89,.45,.9,.9Z"/><path class="f" d="M83.21,191.7c-.03,.49-.43,.87-.92,.86-.51-.02-.89-.39-.89-.88,0-.52,.46-.96,.97-.92,.47,.03,.87,.47,.84,.94Z"/><path class="f" d="M173.44,187.91c.5-.02,.92,.34,.95,.83,.03,.52-.4,.99-.91,.97-.48-.01-.9-.42-.91-.89-.01-.48,.38-.89,.87-.91Z"/><path class="f" d="M167.29,81.41c-.01,.48-.42,.88-.91,.88s-.88-.42-.9-.9c-.01-.5,.44-.94,.97-.92,.49,.03,.85,.43,.84,.94Z"/><path class="f" d="M103.75,203.24c0,.53-.43,.97-.94,.94-.48-.02-.87-.43-.86-.92,.01-.48,.4-.88,.89-.89,.48,0,.91,.39,.91,.87Z"/><path class="f" d="M61.68,161.04c0,.48-.39,.89-.88,.9-.52,.01-.96-.43-.93-.95,.03-.48,.45-.87,.93-.85,.47,.01,.88,.41,.88,.9Z"/><path class="f" d="M182.89,177.28c.48,.01,.88,.41,.88,.9s-.4,.9-.88,.9c-.53-.01-.97-.44-.93-.95,.03-.49,.44-.87,.93-.85Z"/><path class="f" d="M195.19,123.89c.02,.47-.36,.91-.83,.95-.52,.04-.96-.36-.97-.9-.01-.51,.34-.88,.86-.88,.51-.01,.92,.35,.94,.83Z"/><path class="f" d="M117.84,69.26c-.03,.48-.43,.86-.93,.85-.52-.01-.93-.46-.88-.99,.05-.48,.48-.85,.96-.79,.5,.06,.87,.46,.85,.94Z"/><path class="f" d="M66.98,102.71c-.48-.01-.89-.41-.89-.9,0-.51,.46-.95,.98-.91,.47,.04,.86,.48,.84,.95-.02,.47-.44,.87-.93,.86Z"/><path class="f" d="M113.17,70c.01,.48-.38,.9-.87,.92-.5,.02-.92-.34-.95-.83-.03-.52,.4-.99,.91-.98,.47,.01,.9,.42,.91,.89Z"/><path class="f" d="M195.05,129.5c-.48-.03-.87-.43-.86-.92,.01-.52,.46-.93,.99-.88,.45,.04,.81,.42,.81,.86,.01,.53-.42,.97-.94,.94Z"/><path class="f" d="M158.91,199.61c.02,.48-.36,.92-.83,.95-.5,.04-.99-.4-.98-.91,.01-.48,.4-.89,.89-.89,.49-.01,.9,.36,.92,.85Z"/><path class="f" d="M71.41,181.63c-.02-.48,.34-.9,.83-.94,.48-.04,.93,.32,.97,.8,.04,.51-.37,1-.88,1.01-.48,.01-.89-.37-.92-.87Z"/><path class="f" d="M61.78,114.59c0,.48-.39,.88-.88,.9-.52,.02-.96-.41-.93-.94,.02-.45,.38-.83,.82-.85,.52-.04,.99,.38,.99,.89Z"/><path class="f" d="M183.96,98.05c.01,.5-.43,.93-.97,.92-.43-.01-.8-.37-.84-.83-.04-.52,.38-.97,.91-.97,.48,.01,.89,.4,.9,.88Z"/><path class="f" d="M69.63,96.97c.51,.01,.9,.39,.89,.88-.01,.47-.41,.91-.88,.93-.49,.02-.94-.44-.94-.96,.01-.48,.41-.86,.93-.85Z"/><path class="f" d="M162.14,196.43c.46-.01,.89,.39,.92,.88,.03,.49-.43,.96-.94,.95-.45-.01-.85-.44-.86-.93-.02-.49,.38-.89,.88-.9Z"/><path class="f" d="M57.73,137.8c0,.51-.48,.96-.99,.92-.44-.03-.79-.42-.81-.88-.01-.49,.38-.9,.88-.91,.5-.01,.93,.38,.92,.87Z"/><path class="f" d="M90.92,197.09c0,.52-.43,.96-.95,.94-.47-.02-.88-.45-.86-.92,.02-.47,.43-.89,.9-.89,.49,0,.91,.39,.91,.87Z"/><path class="f" d="M59.14,151.96c-.01,.47-.44,.87-.94,.85-.49-.02-.88-.43-.86-.93s.45-.9,.93-.86c.47,.03,.88,.47,.87,.94Z"/><path class="f" d="M177.95,90.73c-.02,.49-.43,.88-.93,.86-.49-.02-.9-.44-.87-.92,.03-.47,.46-.88,.94-.88,.49,.01,.88,.44,.86,.94Z"/><path class="f" d="M140.23,206.81c-.49,0-.9-.39-.9-.9s.4-.92,.89-.9c.47,.02,.9,.43,.91,.91,.02,.47-.4,.88-.9,.89Z"/><path class="f" d="M112.83,205.91c-.02,.49-.45,.9-.93,.85-.48-.04-.88-.47-.87-.95,.01-.48,.44-.87,.95-.84,.49,.03,.87,.43,.85,.94Z"/><path class="f" d="M181.1,94.33c-.03,.49-.45,.89-.94,.86-.49-.03-.87-.44-.85-.95,.02-.49,.44-.88,.94-.86,.48,.02,.88,.46,.85,.95Z"/><path class="f" d="M59.27,157.42c-.47-.02-.86-.44-.85-.93,.02-.46,.44-.87,.92-.87,.51,0,.95,.47,.89,.98-.05,.46-.48,.84-.96,.82Z"/><path class="f" d="M99.33,201.54c0,.47-.42,.88-.93,.86-.49-.01-.89-.42-.88-.92,.01-.45,.37-.85,.82-.87,.52-.03,.99,.41,.99,.93Z"/><path class="f" d="M58.37,128.38c.01,.5-.4,.92-.88,.91-.47-.01-.9-.42-.92-.9-.02-.47,.39-.89,.9-.9,.48-.01,.89,.38,.9,.89Z"/><path class="f" d="M107.34,203.8c.48-.01,.89,.4,.88,.91,0,.49-.41,.9-.9,.89-.49,0-.92-.42-.9-.9,.02-.46,.44-.89,.92-.9Z"/><path class="f" d="M65.4,169.69c.02,.49-.36,.93-.85,.94-.47,.01-.91-.38-.95-.87-.04-.47,.36-.91,.86-.93,.5-.01,.92,.36,.94,.86Z"/><path class="f" d="M136.72,69.22c.03,.46-.36,.91-.84,.94-.5,.03-.96-.39-.96-.92,0-.48,.39-.88,.89-.89,.46-.01,.89,.39,.91,.87Z"/><path class="f" d="M189.93,166.67c-.49,.02-.91-.34-.94-.84-.03-.48,.35-.91,.85-.93,.47-.03,.91,.36,.94,.86,.04,.46-.34,.89-.85,.91Z"/><path class="f" d="M87.26,81.24c-.01,.46-.43,.88-.92,.89-.48,0-.88-.41-.87-.91,.01-.49,.41-.89,.9-.89s.89,.42,.89,.91Z"/><path class="f" d="M192.62,114.78c.01,.49-.37,.9-.87,.91-.5,.01-.92-.37-.93-.86,0-.48,.41-.92,.88-.93,.48,0,.91,.39,.92,.88Z"/><path class="f" d="M177.74,185.4c.03,.49-.34,.91-.85,.94-.5,.03-.93-.34-.95-.83-.02-.47,.37-.92,.85-.95,.48-.03,.93,.36,.95,.84Z"/><path class="f" d="M190.19,141.17c.43,.01,.8,.39,.8,.86s-.34,.87-.77,.9c-.47,.03-.88-.39-.86-.91,.03-.48,.39-.86,.83-.85Z"/><path class="f" d="M133.81,200.65c.42-.02,.84,.38,.86,.81,.02,.43-.36,.84-.81,.85-.44,.02-.85-.36-.86-.79-.01-.41,.38-.84,.81-.86Z"/><path class="f" d="M186.24,159.49c.44-.02,.85,.34,.87,.78,.02,.42-.36,.85-.79,.88-.42,.02-.84-.36-.87-.8-.02-.44,.34-.85,.8-.87Z"/><path class="f" d="M184.51,163.83c.45,.02,.83,.39,.82,.83-.01,.43-.4,.79-.86,.78-.44,0-.82-.38-.8-.83,0-.45,.38-.81,.84-.78Z"/><path class="f" d="M124.47,201.09c.45-.01,.83,.35,.83,.79s-.35,.84-.78,.85-.8-.36-.83-.81c-.02-.45,.33-.83,.78-.84Z"/><path class="f" d="M114.05,76.01c-.45,.02-.83-.34-.84-.79s.34-.84,.78-.86c.42-.02,.82,.35,.84,.81,.01,.44-.34,.83-.78,.85Z"/><path class="f" d="M119.46,74.44c0,.44-.36,.84-.79,.85-.43,.01-.81-.36-.83-.82-.01-.45,.33-.83,.78-.84,.45-.01,.83,.35,.84,.81Z"/><path class="f" d="M189.65,145.96c.46-.02,.86,.33,.86,.76s-.35,.83-.8,.85c-.44,.02-.83-.33-.86-.78-.03-.42,.34-.82,.79-.83Z"/><path class="f" d="M151.55,78.83c.01,.43-.38,.84-.82,.84s-.84-.4-.85-.83c-.01-.41,.41-.84,.83-.84s.83,.41,.84,.83Z"/><path class="f" d="M171.06,184.46c-.43-.02-.78-.41-.77-.87,.01-.45,.39-.79,.85-.77,.45,.02,.79,.4,.76,.86-.02,.44-.4,.8-.84,.78Z"/><path class="f" d="M132.67,75.13c-.45,.02-.83-.32-.85-.77-.02-.44,.34-.83,.79-.84,.44-.01,.85,.35,.86,.78,.01,.42-.35,.8-.81,.83Z"/><path class="f" d="M179.99,173.63c-.42,.02-.82-.34-.85-.79-.03-.45,.32-.84,.76-.86,.45-.02,.83,.33,.85,.78,.02,.45-.33,.85-.76,.87Z"/><path class="f" d="M71.55,169.76c.01,.41-.4,.83-.83,.85-.43,.01-.84-.38-.84-.82s.39-.84,.82-.85c.41-.01,.84,.39,.85,.82Z"/><path class="f" d="M142.66,75.89c.01,.45-.34,.83-.79,.84-.45,.01-.84-.35-.86-.78-.02-.43,.35-.81,.81-.83,.45-.02,.84,.32,.85,.77Z"/><path class="f" d="M152.62,196.68c-.02,.45-.41,.79-.86,.76-.45-.03-.78-.41-.75-.87,.03-.45,.43-.82,.86-.77,.42,.03,.77,.43,.75,.88Z"/><path class="f" d="M101.46,79.33c0,.44-.36,.82-.82,.82s-.84-.37-.84-.81c-.01-.43,.37-.8,.83-.82,.45,0,.83,.35,.83,.81Z"/><path class="f" d="M68.82,111.35c.01,.45-.35,.84-.78,.86-.43,.02-.82-.35-.84-.81s.32-.83,.77-.85c.46-.01,.84,.34,.85,.8Z"/><path class="f" d="M67.46,161.32c.01,.43-.35,.84-.78,.88-.43,.04-.85-.34-.86-.78-.01-.45,.34-.86,.77-.87,.46-.02,.86,.34,.87,.77Z"/><path class="f" d="M148.29,198.32c.02,.45-.34,.83-.78,.84-.44,.01-.85-.35-.86-.77-.02-.43,.34-.82,.8-.84,.45-.02,.83,.32,.85,.77Z"/><path class="f" d="M191.12,137.32c-.01,.44-.39,.82-.83,.82s-.82-.37-.83-.83c-.01-.43,.36-.8,.83-.8s.84,.36,.83,.81Z"/><path class="f" d="M69.36,165.63c.01,.43-.37,.81-.83,.82-.45,.01-.83-.34-.83-.8-.01-.44,.36-.83,.81-.83s.84,.37,.85,.8Z"/><path class="f" d="M188.84,150.57c.46-.02,.87,.32,.88,.75,.01,.44-.34,.84-.78,.86-.43,.02-.83-.32-.87-.77-.04-.43,.31-.82,.77-.84Z"/><path class="f" d="M78.92,180.28c.46-.02,.86,.33,.87,.76,.01,.44-.35,.84-.79,.86-.43,.02-.83-.33-.86-.77-.04-.43,.32-.83,.78-.85Z"/><path class="f" d="M190.92,132.64c-.01,.41-.42,.82-.85,.82s-.83-.4-.82-.84c.01-.42,.42-.83,.84-.83,.41,.01,.83,.43,.83,.85Z"/><path class="f" d="M129.97,201.85c.01,.44-.36,.85-.8,.85s-.83-.38-.84-.82c-.01-.43,.37-.84,.81-.85,.43-.01,.82,.37,.83,.82Z"/><path class="f" d="M163.83,85.57c-.01,.44-.4,.81-.87,.8-.46-.01-.82-.41-.78-.86,.03-.43,.46-.78,.92-.74,.4,.04,.74,.41,.73,.81Z"/><path class="f" d="M189.56,127.17c.43,.02,.8,.42,.78,.86-.02,.43-.41,.82-.85,.79-.43-.01-.79-.41-.77-.86,.01-.44,.4-.82,.84-.79Z"/><path class="f" d="M62.41,144.05c-.43,0-.79-.38-.79-.85,0-.42,.4-.81,.85-.8,.42,0,.81,.41,.79,.85-.01,.44-.39,.81-.85,.8Z"/><path class="f" d="M93.39,192.05c.45,.02,.83,.39,.82,.83-.01,.44-.4,.83-.83,.81-.45-.01-.84-.4-.82-.83,.01-.45,.39-.83,.83-.81Z"/><path class="f" d="M65.08,157.78c-.43-.01-.82-.41-.82-.84,.01-.42,.41-.81,.86-.78,.44,.01,.83,.4,.82,.83-.02,.43-.42,.81-.86,.8Z"/><path class="f" d="M170.25,92.31c-.42,.01-.82-.37-.83-.82-.01-.44,.37-.84,.79-.84s.83,.38,.83,.82c.02,.43-.36,.83-.79,.84Z"/><path class="f" d="M185.82,115.28c-.46-.02-.83-.4-.81-.85,.02-.4,.39-.74,.79-.75,.46,0,.86,.36,.85,.81,0,.47-.36,.83-.84,.79Z"/><path class="f" d="M164.79,189.62c.03,.43-.33,.84-.77,.87-.43,.03-.85-.32-.88-.76-.04-.42,.32-.83,.77-.86,.44-.03,.86,.32,.88,.75Z"/><path class="f" d="M146.27,78.05c-.44-.03-.76-.44-.71-.92,.05-.43,.4-.75,.81-.72,.46,.03,.83,.42,.78,.87-.04,.44-.43,.8-.88,.77Z"/><path class="f" d="M159.07,83.84c-.46,.01-.84-.36-.83-.83,.01-.44,.4-.82,.86-.81,.4,.01,.74,.35,.76,.78,.02,.46-.32,.84-.79,.85Z"/><path class="f" d="M81.43,93.17c-.45,.03-.85-.33-.86-.78-.01-.42,.3-.77,.72-.82,.46-.05,.9,.29,.92,.72,.02,.44-.34,.85-.78,.88Z"/><path class="f" d="M102.57,197.08c-.01,.44-.4,.82-.86,.82s-.78-.41-.76-.88c.03-.42,.36-.74,.78-.75,.46-.01,.85,.35,.84,.82Z"/><path class="f" d="M63.8,147.86c0,.45-.37,.83-.84,.82-.42-.01-.75-.34-.78-.75-.03-.48,.39-.91,.89-.88,.39,.02,.72,.4,.73,.82Z"/><path class="f" d="M188.57,155.88c-.02,.46-.41,.84-.85,.82-.46-.02-.79-.42-.75-.89,.04-.42,.38-.75,.78-.76,.44-.01,.84,.39,.82,.84Z"/><path class="f" d="M63.89,153.27c-.44,0-.85-.38-.85-.81s.39-.82,.83-.83c.43-.01,.83,.37,.84,.81,.02,.43-.37,.82-.82,.83Z"/><path class="f" d="M96.48,80.54c.45,.02,.8,.42,.76,.88-.04,.41-.39,.73-.8,.73-.47,0-.86-.38-.83-.83,.03-.45,.42-.81,.87-.78Z"/><path class="f" d="M76.75,177.53c-.02,.46-.4,.81-.87,.77-.43-.03-.77-.37-.76-.77,0-.45,.38-.84,.83-.84,.44-.01,.83,.38,.8,.84Z"/><path class="f" d="M138.1,74.95c-.01,.44-.4,.81-.87,.8-.46-.01-.82-.4-.78-.86,.03-.43,.46-.78,.91-.74,.41,.04,.75,.41,.74,.81Z"/><path class="f" d="M82.23,185.22c-.46-.02-.81-.39-.78-.86,.03-.43,.36-.77,.76-.77,.45,0,.85,.38,.85,.82,.02,.45-.37,.83-.83,.82Z"/><path class="f" d="M63.61,129.25c-.01,.46-.38,.85-.83,.83-.4-.01-.75-.36-.77-.77-.02-.45,.34-.87,.78-.88,.45-.01,.83,.36,.82,.83Z"/><path class="f" d="M160.86,192.35c-.05,.46-.47,.81-.91,.74-.4-.06-.72-.44-.7-.85,.03-.46,.42-.83,.86-.79,.47,.03,.81,.44,.75,.9Z"/><path class="f" d="M180.12,102.12c.02,.44-.36,.86-.81,.85-.4,0-.75-.33-.81-.75-.05-.46,.28-.87,.74-.9,.45-.02,.85,.34,.87,.81Z"/><path class="f" d="M97.45,194.33c.46-.01,.86,.34,.87,.78,.01,.4-.33,.77-.73,.82-.44,.04-.89-.31-.92-.73-.03-.46,.32-.86,.78-.87Z"/><path class="f" d="M88.53,87.12c-.43,.01-.82-.36-.83-.82-.01-.42,.3-.74,.73-.77,.48-.03,.87,.29,.88,.74,.01,.43-.35,.83-.78,.85Z"/><path class="f" d="M156.83,194.61c.01,.42-.29,.74-.73,.77-.48,.04-.87-.29-.88-.73-.01-.45,.34-.85,.78-.86,.44-.02,.82,.35,.83,.82Z"/><path class="f" d="M173.56,95.61c-.48,.02-.86-.31-.85-.76,0-.45,.37-.84,.81-.84s.81,.39,.79,.85c0,.42-.31,.73-.75,.75Z"/><path class="f" d="M175.12,180.19c.02,.45-.33,.86-.76,.88-.43,.02-.83-.34-.85-.79-.02-.42,.28-.76,.71-.81,.47-.04,.87,.28,.9,.72Z"/><path class="f" d="M168.46,186.8c-.03,.44-.43,.81-.88,.79-.41-.01-.76-.37-.76-.78,0-.48,.45-.91,.93-.85,.4,.05,.73,.44,.71,.84Z"/><path class="f" d="M189.41,123.44c-.02,.47-.4,.84-.85,.78-.42-.04-.76-.39-.75-.78,0-.45,.37-.85,.82-.84,.45,0,.8,.37,.78,.84Z"/><path class="f" d="M182.41,169.62c-.43,.02-.83-.34-.85-.79-.02-.41,.28-.75,.71-.81,.48-.05,.88,.27,.9,.71,.02,.46-.32,.87-.76,.89Z"/><path class="f" d="M106.13,199.52c-.43,0-.82-.41-.81-.86,.01-.4,.35-.75,.77-.77,.42-.03,.84,.36,.87,.8,.02,.41-.39,.83-.84,.83Z"/><path class="f" d="M89.46,189.52c.46,.01,.84,.38,.83,.82-.01,.43-.41,.79-.86,.78-.44-.01-.77-.39-.74-.88,.03-.42,.35-.73,.77-.72Z"/><path class="f" d="M115.14,201.77c-.45-.01-.77-.4-.73-.89,.03-.43,.36-.73,.78-.72,.45,.01,.83,.39,.82,.83-.01,.44-.41,.8-.87,.78Z"/><path class="f" d="M139.26,200.74c.02,.45-.35,.84-.81,.84-.41,0-.76-.32-.81-.72-.04-.45,.3-.86,.75-.89,.44-.03,.84,.32,.86,.77Z"/><path class="f" d="M93.19,83.71c-.03,.44-.43,.83-.87,.81-.45-.02-.82-.45-.75-.89,.06-.45,.47-.78,.92-.74,.41,.04,.73,.4,.7,.83Z"/><path class="f" d="M70.12,106.41c.47,0,.85,.37,.83,.81-.02,.4-.36,.75-.77,.77-.44,.03-.85-.33-.88-.77-.03-.42,.35-.81,.83-.81Z"/><path class="f" d="M182.58,106.15c-.02,.45-.41,.8-.87,.76-.43-.03-.77-.46-.73-.91,.04-.39,.41-.71,.83-.72,.43,0,.79,.4,.77,.87Z"/><path class="f" d="M73.21,172.91c.4,0,.77,.35,.79,.75,.03,.47-.4,.91-.89,.88-.41-.02-.75-.38-.74-.79,0-.44,.39-.84,.84-.84Z"/><path class="f" d="M72.45,104c-.43-.02-.79-.45-.75-.9,.03-.39,.4-.71,.83-.71,.46,0,.83,.37,.81,.84-.01,.43-.42,.79-.88,.77Z"/><path class="f" d="M111.42,200.02c.01,.46-.35,.79-.85,.77-.44-.02-.76-.33-.76-.74-.01-.45,.35-.85,.79-.86,.44-.01,.82,.36,.82,.83Z"/><path class="f" d="M104.96,78.43c-.45-.02-.8-.4-.77-.86,.03-.41,.37-.73,.78-.74,.45-.01,.84,.36,.83,.82,.01,.44-.37,.79-.84,.78Z"/><path class="f" d="M110.24,76.27c-.02,.47-.4,.84-.85,.78-.42-.04-.75-.39-.75-.78,0-.46,.37-.85,.8-.85,.45,.01,.82,.38,.79,.85Z"/><path class="f" d="M177.34,177.45c-.44,.02-.85-.34-.88-.79-.03-.41,.29-.78,.7-.84,.48-.05,.94,.35,.93,.84,.01,.41-.34,.78-.75,.79Z"/><path class="f" d="M78.99,95.69c.02,.43-.36,.85-.81,.87-.41,.01-.79-.31-.84-.71-.05-.45,.29-.88,.73-.91,.46-.04,.89,.32,.91,.75Z"/><path class="f" d="M85.67,89.19c-.01,.43-.39,.79-.85,.78-.46,0-.78-.37-.75-.85,.03-.42,.35-.73,.77-.74,.44-.01,.83,.37,.83,.81Z"/><path class="f" d="M166.72,89.18c-.45-.02-.82-.4-.8-.84,.02-.43,.43-.79,.87-.76,.45,.04,.77,.42,.73,.89-.04,.43-.37,.73-.79,.71Z"/><path class="f" d="M124.08,74.09c-.02,.45-.4,.83-.84,.8-.43-.02-.79-.43-.76-.88,.04-.45,.43-.77,.9-.72,.42,.04,.72,.38,.7,.81Z"/><path class="f" d="M75.19,98.58c.46-.01,.83,.33,.84,.78,0,.44-.38,.83-.82,.82-.44-.02-.79-.4-.78-.86,.01-.42,.33-.73,.76-.74Z"/><path class="f" d="M142.99,198.94c.43,0,.77,.29,.81,.7,.03,.49-.37,.92-.85,.89-.4-.02-.74-.37-.75-.77-.03-.45,.33-.82,.79-.82Z"/><path class="f" d="M86.52,187.54c-.02,.45-.41,.79-.86,.75-.4-.03-.73-.39-.74-.79,0-.43,.38-.81,.84-.81,.45,.01,.78,.37,.76,.85Z"/><path class="f" d="M63.01,138.57c0,.43-.3,.77-.71,.79-.49,.03-.92-.38-.89-.85,.03-.4,.38-.73,.78-.74,.44-.02,.81,.33,.82,.8Z"/><path class="f" d="M128.01,74.85c-.43,.02-.85-.35-.87-.8-.01-.43,.39-.85,.82-.85,.41,.01,.76,.33,.79,.74,.04,.46-.3,.88-.74,.9Z"/><path class="f" d="M63.16,133.89c.01,.44-.37,.84-.8,.83-.43-.01-.79-.39-.79-.85,0-.42,.32-.73,.75-.75,.46-.03,.84,.31,.85,.77Z"/><path class="f" d="M63.57,125.46c-.4-.02-.75-.39-.75-.78,0-.44,.39-.81,.86-.81,.43,.01,.75,.34,.74,.77-.02,.46-.4,.84-.85,.82Z"/><path class="f" d="M155.79,80.71c.03,.44-.34,.83-.82,.85-.44,.01-.77-.3-.78-.73-.01-.46,.35-.86,.79-.86,.41-.01,.78,.34,.81,.74Z"/><path class="f" d="M120.63,201.63c-.03,.44-.43,.79-.9,.76-.42-.03-.73-.38-.7-.82,.03-.46,.44-.83,.88-.77,.41,.03,.75,.42,.72,.83Z"/><path class="f" d="M64.74,119.31c.4-.02,.78,.32,.83,.72,.05,.43-.31,.85-.78,.88-.43,.03-.8-.28-.82-.7-.02-.46,.32-.88,.77-.9Z"/><path class="f" d="M187.43,119.7c-.46,0-.85-.38-.84-.83,.01-.41,.37-.76,.77-.77,.44-.01,.82,.37,.82,.84,.01,.43-.32,.76-.75,.76Z"/><path class="f" d="M67.02,115.7c0,.43-.32,.76-.75,.76-.46,0-.85-.37-.85-.82,.01-.41,.36-.76,.76-.78,.44-.01,.83,.38,.84,.84Z"/><path class="f" d="M183.97,109.43c.42-.02,.77,.28,.81,.69,.03,.44-.3,.86-.73,.9-.43,.04-.85-.32-.87-.75-.02-.43,.34-.81,.8-.84Z"/><path class="f" d="M176.6,97.59c.42,.01,.73,.34,.73,.76,0,.45-.36,.83-.79,.84-.43,0-.82-.39-.79-.83,.02-.44,.4-.8,.86-.77Z"/><path class="f" d="M185.55,141.2c-.01,.44-.33,.77-.74,.77-.42-.01-.76-.35-.75-.77,.01-.42,.34-.76,.75-.77,.4-.02,.75,.34,.74,.77Z"/><path class="f" d="M127.21,196.48c.02,.42-.33,.78-.74,.77-.39-.01-.72-.31-.73-.68-.02-.41,.34-.77,.75-.78,.37,.01,.71,.32,.72,.69Z"/><path class="f" d="M173.28,102.04c-.01,.37-.34,.7-.7,.71-.41,.01-.77-.34-.76-.75,.01-.41,.39-.74,.8-.71,.37,.03,.67,.38,.66,.75Z"/><path class="f" d="M88.68,182.26c.03,.36-.27,.73-.63,.77-.41,.05-.81-.27-.84-.67-.03-.41,.31-.77,.73-.78,.36-.01,.7,.3,.73,.68Z"/><path class="f" d="M179.71,163.65c0,.4-.38,.76-.78,.74-.37-.02-.67-.34-.68-.72-.01-.42,.34-.76,.76-.73,.39,.03,.7,.35,.7,.71Z"/><path class="f" d="M150.8,84.06c.42-.02,.79,.32,.78,.72-.01,.36-.33,.7-.69,.73-.4,.04-.76-.31-.77-.74-.01-.38,.29-.69,.68-.71Z"/><path class="f" d="M75.33,110.23c.01,.41-.34,.76-.75,.75-.37-.01-.69-.33-.7-.7-.01-.37,.29-.72,.65-.75,.41-.04,.79,.29,.81,.7Z"/><path class="f" d="M71.8,159.05c.37-.02,.72,.28,.76,.64,.04,.41-.28,.79-.69,.82s-.76-.32-.76-.74c0-.37,.31-.69,.69-.71Z"/><path class="f" d="M136.5,195.79c-.02,.4-.41,.74-.82,.71-.36-.03-.65-.37-.65-.75,0-.42,.37-.74,.79-.69,.39,.04,.69,.37,.67,.73Z"/><path class="f" d="M144.8,192.81c.36-.01,.7,.3,.73,.67,.03,.4-.32,.79-.72,.78-.38-.01-.71-.31-.74-.67-.02-.41,.31-.77,.73-.78Z"/><path class="f" d="M137.51,81.23c-.38-.02-.67-.35-.66-.73,.02-.42,.39-.77,.78-.72,.37,.04,.67,.38,.67,.74,.01,.4-.37,.73-.79,.71Z"/><path class="f" d="M122.56,196.38c-.01,.41-.39,.74-.81,.71-.36-.03-.67-.38-.66-.75,.01-.37,.34-.7,.7-.71,.42-.01,.77,.34,.76,.75Z"/><path class="f" d="M131.87,196.34c.01,.36-.3,.69-.68,.72-.42,.04-.78-.3-.77-.72,.01-.38,.31-.71,.67-.73,.39-.03,.77,.32,.78,.73Z"/><path class="f" d="M70.24,154.68c.36-.02,.71,.28,.75,.65,.05,.4-.3,.81-.7,.81-.37,.01-.71-.29-.75-.66-.04-.4,.28-.77,.7-.79Z"/><path class="f" d="M183.11,154.97c.02,.36-.28,.7-.66,.74-.42,.05-.79-.28-.79-.7,0-.39,.28-.72,.65-.75,.4-.03,.78,.31,.8,.71Z"/><path class="f" d="M166.24,95.88c-.41-.02-.74-.41-.69-.82,.04-.36,.4-.66,.76-.64,.38,.02,.69,.34,.69,.71,0,.42-.35,.76-.76,.74Z"/><path class="f" d="M68.95,146.34c-.02,.42-.38,.75-.79,.71-.37-.03-.67-.36-.67-.74,0-.4,.39-.75,.79-.71,.37,.04,.68,.38,.67,.74Z"/><path class="f" d="M80.37,102.4c.01,.42-.33,.79-.73,.77-.36-.01-.69-.33-.72-.7-.03-.4,.32-.75,.75-.75,.38,0,.68,.3,.7,.68Z"/><path class="f" d="M154.11,189.95c-.01,.38-.33,.68-.71,.68-.42,0-.78-.37-.74-.76,.03-.36,.36-.68,.73-.69,.39-.01,.73,.35,.72,.77Z"/><path class="f" d="M161.25,184.23c.41,0,.76,.36,.74,.77-.02,.36-.36,.68-.73,.68s-.72-.31-.74-.67c-.02-.41,.33-.78,.73-.78Z"/><path class="f" d="M99.51,189.37c.36-.02,.69,.28,.74,.66,.05,.42-.28,.78-.7,.8-.39,0-.72-.28-.75-.65-.04-.4,.3-.78,.71-.81Z"/><path class="f" d="M112.66,195.65c-.41,.02-.77-.32-.77-.74,0-.36,.31-.69,.69-.72,.37-.02,.73,.28,.77,.63,.04,.42-.29,.81-.69,.84Z"/><path class="f" d="M155.04,86.18c.4,.01,.72,.39,.69,.82-.03,.38-.36,.67-.74,.65-.4-.02-.74-.41-.7-.81,.03-.37,.38-.67,.75-.66Z"/><path class="f" d="M149.16,192.62c-.38,0-.71-.3-.73-.67-.03-.39,.32-.77,.73-.79,.4-.01,.75,.36,.72,.77-.02,.38-.35,.69-.72,.69Z"/><path class="f" d="M133.01,79.06c.38,.01,.69,.33,.69,.7-.01,.4-.37,.75-.77,.74-.37-.01-.67-.33-.68-.71-.02-.4,.33-.74,.76-.73Z"/><path class="f" d="M82.1,175.7c-.01,.4-.31,.71-.69,.71-.4,0-.76-.39-.72-.79,.04-.38,.38-.68,.75-.66,.38,.02,.67,.34,.66,.74Z"/><path class="f" d="M70.22,123.26c-.02,.42-.38,.73-.79,.68-.37-.05-.64-.37-.62-.75,.02-.42,.37-.72,.8-.67,.38,.04,.64,.36,.62,.74Z"/><path class="f" d="M82.63,98.12c.4-.01,.73,.36,.72,.78-.01,.37-.34,.68-.71,.67-.4-.01-.75-.38-.73-.78,.02-.37,.34-.67,.72-.67Z"/><path class="f" d="M146.59,83.72c-.4,.02-.77-.33-.77-.73-.01-.37,.31-.69,.68-.7,.42-.01,.78,.33,.77,.72-.01,.38-.31,.69-.68,.71Z"/><path class="f" d="M185.09,145.94c-.02,.38-.34,.66-.74,.65-.4-.01-.71-.31-.71-.69,0-.41,.39-.76,.79-.71,.39,.04,.69,.39,.66,.75Z"/><path class="f" d="M181.48,117.53c.38,0,.69,.31,.7,.7,.01,.4-.26,.72-.64,.75-.41,.03-.77-.33-.76-.74,.01-.38,.33-.7,.7-.71Z"/><path class="f" d="M142.11,80.85c.4-.01,.73,.35,.72,.77-.01,.38-.33,.69-.7,.68-.4-.01-.75-.38-.73-.77,.01-.37,.33-.67,.71-.68Z"/><path class="f" d="M169.49,99.18c-.37-.02-.67-.34-.67-.72-.01-.4,.36-.73,.78-.72,.37,.01,.69,.34,.67,.71-.01,.4-.38,.75-.78,.73Z"/><path class="f" d="M67.9,133.12c-.38,0-.69-.3-.7-.68-.01-.39,.27-.7,.65-.72,.43-.03,.77,.3,.75,.72-.01,.38-.33,.68-.7,.68Z"/><path class="f" d="M73.25,114.4c.01,.43-.34,.78-.74,.76-.37-.02-.67-.36-.66-.74,.01-.37,.34-.7,.7-.71,.37,0,.69,.32,.7,.69Z"/><path class="f" d="M101.22,84.33c.38,.01,.7,.33,.69,.7-.01,.36-.34,.69-.71,.7-.37,.01-.72-.3-.74-.66-.03-.4,.32-.74,.76-.74Z"/><path class="f" d="M123.64,78.74c.37-.01,.72,.3,.74,.66,.02,.4-.33,.75-.76,.74-.38-.01-.7-.33-.69-.7,.01-.36,.34-.69,.71-.7Z"/><path class="f" d="M68.36,137.1c-.02,.38-.35,.67-.74,.65s-.71-.33-.72-.69c-.01-.4,.39-.75,.81-.7,.37,.03,.68,.37,.66,.74Z"/><path class="f" d="M103.69,192.75c-.38-.02-.68-.37-.65-.74,.03-.36,.37-.67,.74-.66,.38,.01,.71,.33,.71,.69,0,.4-.38,.74-.81,.71Z"/><path class="f" d="M184.61,131.14c.37,.02,.7,.35,.69,.71,0,.37-.32,.69-.71,.69-.43,0-.78-.35-.74-.76,.04-.37,.39-.67,.76-.64Z"/><path class="f" d="M85.81,96.21c-.38-.02-.68-.36-.66-.73,.03-.37,.37-.67,.74-.67,.38,.01,.71,.33,.71,.69,.02,.4-.36,.73-.79,.71Z"/><path class="f" d="M68.53,128.5c-.38,.01-.7-.29-.72-.67-.02-.42,.32-.76,.74-.74,.38,.02,.68,.33,.67,.71-.01,.39-.31,.7-.69,.7Z"/><path class="f" d="M110.6,81.76c-.02,.38-.35,.7-.71,.69-.4-.01-.73-.39-.69-.82,.03-.38,.38-.67,.75-.63,.37,.03,.67,.38,.65,.75Z"/><path class="f" d="M70.87,118.08c.37,.02,.7,.35,.7,.71s-.33,.69-.71,.69c-.43,0-.78-.36-.75-.76,.03-.36,.38-.66,.76-.64Z"/><path class="f" d="M108.12,192.95c.38,0,.69,.31,.7,.69,.01,.39-.27,.7-.66,.72-.43,.03-.77-.3-.75-.73,.02-.38,.33-.68,.71-.68Z"/><path class="f" d="M182.92,123.42c-.37,.02-.71-.27-.75-.65-.04-.41,.31-.81,.7-.81,.36,.01,.67,.32,.7,.71,.03,.39-.26,.72-.65,.74Z"/><path class="f" d="M114.44,81.32c-.37,.01-.72-.29-.75-.65-.03-.37,.27-.72,.64-.75,.42-.03,.8,.29,.82,.7,.01,.36-.32,.69-.7,.7Z"/><path class="f" d="M96.16,187.82c0,.38-.31,.69-.69,.7-.42,.01-.75-.34-.72-.76,.03-.38,.35-.66,.73-.64,.39,.01,.68,.32,.68,.7Z"/><path class="f" d="M158.16,187.6c0,.36-.33,.69-.71,.7-.37,.01-.72-.29-.75-.66-.03-.37,.27-.72,.65-.74,.42-.03,.8,.31,.82,.7Z"/><path class="f" d="M97.07,87.91c-.36,0-.69-.33-.71-.7-.02-.42,.34-.78,.75-.75,.37,.03,.65,.36,.65,.75s-.32,.7-.69,.7Z"/><path class="f" d="M77.01,106.97c-.37,.02-.71-.28-.75-.65-.04-.41,.3-.81,.7-.8,.37,.01,.67,.32,.69,.71,.03,.38-.26,.71-.64,.73Z"/><path class="f" d="M75.93,167.39c.41-.02,.76,.31,.77,.72,.01,.38-.29,.7-.66,.71-.4,.02-.76-.33-.78-.73-.01-.35,.3-.68,.67-.7Z"/><path class="f" d="M165.61,182.02c.01,.38-.31,.7-.69,.7-.43,0-.78-.34-.76-.74,.02-.36,.37-.67,.74-.66,.38,.02,.7,.34,.71,.7Z"/><path class="f" d="M176.78,167.05c.37,.02,.7,.35,.7,.71s-.33,.69-.71,.69c-.43,0-.78-.36-.75-.76,.03-.36,.38-.66,.76-.64Z"/><path class="f" d="M158.97,88.62c.37,0,.69,.32,.69,.7s-.29,.72-.65,.74c-.4,.03-.77-.33-.75-.75,.02-.36,.35-.69,.71-.69Z"/><path class="f" d="M79.27,171.94c.02,.39-.26,.7-.64,.73-.39,.03-.72-.23-.76-.61-.05-.42,.27-.78,.68-.79,.38,0,.7,.29,.72,.67Z"/><path class="f" d="M172.1,175.4c-.01,.38-.32,.68-.7,.68s-.69-.3-.71-.68c-.02-.42,.33-.76,.75-.73,.38,.03,.67,.35,.66,.73Z"/><path class="f" d="M175.95,105.8c-.01,.4-.31,.71-.68,.71s-.71-.31-.72-.68c-.02-.4,.34-.77,.75-.76,.38,0,.67,.32,.65,.73Z"/><path class="f" d="M91.57,184.5c.38-.02,.7,.26,.74,.64,.04,.42-.29,.77-.71,.76-.38-.01-.69-.31-.69-.69-.01-.38,.28-.69,.66-.71Z"/><path class="f" d="M168.26,179.51c-.38,0-.71-.3-.71-.68,0-.36,.32-.7,.69-.72,.41-.03,.79,.34,.76,.74-.02,.37-.35,.66-.74,.66Z"/><path class="f" d="M141.06,194.8c.03,.36-.28,.7-.66,.74-.37,.03-.73-.25-.78-.61-.06-.37,.22-.73,.6-.78,.42-.05,.82,.25,.85,.65Z"/><path class="f" d="M85.27,179.15c-.03,.37-.36,.69-.72,.68-.41,0-.73-.38-.68-.81,.05-.39,.38-.67,.75-.62,.38,.05,.67,.38,.65,.74Z"/><path class="f" d="M68.44,141.72c-.01,.39-.31,.69-.69,.7-.38,.01-.7-.3-.71-.67-.01-.41,.34-.76,.75-.76,.37,.01,.66,.33,.65,.73Z"/><path class="f" d="M177.65,109.07c.37-.03,.69,.28,.7,.67,.01,.39-.26,.71-.64,.75-.38,.04-.73-.24-.77-.61-.03-.4,.31-.79,.71-.82Z"/><path class="f" d="M174.18,170.95c.36-.03,.71,.27,.75,.65,.04,.41-.3,.81-.7,.81-.36,0-.68-.33-.7-.7-.02-.38,.28-.73,.65-.75Z"/><path class="f" d="M93.09,88.97c.38-.01,.72,.28,.75,.64,.03,.36-.27,.71-.64,.75-.41,.04-.81-.3-.81-.69-.01-.36,.32-.69,.69-.7Z"/><path class="f" d="M117.91,195.8c.02,.38-.27,.71-.65,.73-.4,.02-.77-.32-.78-.73-.01-.37,.31-.67,.71-.67,.39,.01,.7,.29,.72,.67Z"/><path class="f" d="M73.79,163.31c.37,.03,.66,.36,.65,.74-.02,.42-.4,.75-.79,.69-.36-.06-.64-.42-.6-.79,.03-.37,.38-.67,.74-.64Z"/><path class="f" d="M183.9,126.52c.37-.02,.71,.28,.73,.66s-.26,.7-.64,.74c-.4,.04-.74-.22-.78-.59-.05-.4,.28-.78,.69-.82Z"/><path class="f" d="M181.55,159.38c.02,.37-.28,.72-.64,.75-.36,.03-.71-.26-.75-.64-.05-.4,.29-.82,.69-.82,.35,0,.68,.33,.7,.7Z"/><path class="f" d="M128.34,78.73c.37,.02,.7,.35,.7,.7,0,.39-.41,.73-.82,.69-.38-.04-.67-.39-.64-.75,.03-.36,.37-.65,.75-.64Z"/><path class="f" d="M68.35,150.89c.01-.38,.33-.69,.7-.68,.41,.01,.75,.38,.73,.78-.02,.37-.36,.65-.75,.62-.39-.04-.69-.35-.68-.72Z"/><path class="f" d="M183.58,149.79c.38,.01,.7,.33,.71,.69,0,.36-.32,.69-.7,.7-.42,.02-.78-.34-.75-.74,.02-.35,.36-.65,.74-.65Z"/><path class="f" d="M179.77,113.26c.38,.01,.7,.34,.7,.7s-.33,.68-.71,.69c-.42,.01-.78-.35-.74-.75,.04-.36,.38-.66,.75-.64Z"/><path class="f" d="M106.18,83.19c-.01,.41-.38,.75-.78,.73-.37-.02-.65-.36-.62-.75s.34-.68,.72-.67c.37-.01,.68,.31,.68,.69Z"/><path class="f" d="M89.4,93.15c-.37,.03-.68-.27-.7-.66-.02-.39,.25-.7,.63-.73,.39-.04,.72,.22,.76,.59,.04,.4-.29,.77-.69,.81Z"/><path class="f" d="M163.45,92.14c0,.37-.33,.68-.72,.66-.39-.01-.68-.32-.67-.72,.01-.35,.27-.65,.61-.67,.4-.03,.77,.32,.78,.73Z"/><path class="f" d="M119.72,79.81c.01,.38-.27,.7-.65,.73-.42,.03-.78-.3-.77-.71,.01-.36,.34-.67,.71-.69,.38-.01,.7,.29,.71,.67Z"/><path class="f" d="M185.58,136.52c-.02,.39-.32,.68-.7,.68s-.69-.3-.7-.68c-.01-.41,.36-.77,.75-.74,.38,.03,.67,.36,.65,.74Z"/><path class="f" d="M180.09,140.34c.02,.38-.27,.73-.63,.74-.32,.01-.62-.26-.65-.6-.03-.38,.25-.72,.62-.73,.35-.02,.64,.25,.66,.59Z"/><path class="f" d="M175.57,117.34c.33-.03,.64,.24,.67,.58,.03,.33-.24,.64-.58,.66-.34,.02-.64-.24-.67-.57-.02-.33,.25-.65,.58-.67Z"/><path class="f" d="M107.28,88.89c-.34-.02-.61-.33-.59-.66,.02-.33,.33-.61,.66-.59,.33,.02,.61,.33,.59,.66-.02,.33-.33,.61-.66,.59Z"/><path class="f" d="M147.9,186.81c.01,.33-.27,.64-.6,.66-.33,.02-.64-.27-.66-.6-.02-.33,.27-.63,.6-.65,.35-.02,.65,.25,.66,.59Z"/><path class="f" d="M111.64,86.19c.35-.01,.65,.26,.66,.59,.01,.34-.25,.63-.59,.65-.33,.02-.63-.25-.65-.6-.04-.33,.25-.64,.58-.64Z"/><path class="f" d="M85.87,104.08c-.02,.34-.32,.63-.64,.62-.34-.01-.62-.3-.61-.64,0-.33,.3-.61,.64-.61s.63,.3,.61,.63Z"/><circle class="f" cx="178.24" cy="149.5" r=".63"/><path class="f" d="M92.06,178.2c-.01,.33-.32,.62-.64,.62-.33-.01-.62-.31-.62-.64,.01-.33,.31-.62,.64-.61,.33,0,.63,.31,.62,.63Z"/><path class="f" d="M120.32,191.45c-.34-.03-.6-.34-.57-.67,.03-.34,.34-.6,.67-.57,.33,.03,.6,.35,.58,.67-.03,.34-.34,.6-.68,.57Z"/><path class="f" d="M80.64,111.62c0,.33-.31,.62-.63,.6-.33-.02-.6-.32-.6-.65s.29-.61,.64-.6c.32,.01,.59,.31,.59,.65Z"/><path class="f" d="M125.86,84.8c-.02,.33-.31,.61-.64,.61s-.61-.28-.61-.63c.01-.32,.3-.6,.64-.61,.33,0,.63,.31,.61,.63Z"/><path class="f" d="M88.27,100.06c.33-.02,.63,.27,.64,.61,.01,.31-.22,.58-.52,.62-.35,.05-.65-.2-.68-.55-.03-.35,.22-.66,.56-.68Z"/><path class="f" d="M143.24,88.17c-.35,0-.64-.29-.63-.63,.01-.34,.31-.6,.67-.58,.31,.02,.55,.26,.57,.57,.02,.35-.26,.64-.61,.64Z"/><path class="f" d="M162.52,176.28c.35-.01,.63,.27,.62,.62-.01,.31-.25,.56-.56,.58-.35,.03-.66-.23-.68-.57-.01-.33,.27-.63,.62-.63Z"/><path class="f" d="M95.67,181.02c0,.33-.32,.64-.65,.62-.34-.01-.62-.33-.6-.67,.02-.31,.28-.56,.59-.56,.35,0,.66,.28,.66,.61Z"/><path class="f" d="M174.2,162.36c.01,.32-.27,.62-.61,.64-.33,.02-.64-.26-.64-.59s.27-.62,.61-.64c.35-.02,.63,.24,.64,.59Z"/><path class="f" d="M74.4,146.97c-.01,.33-.31,.61-.65,.58-.34-.02-.61-.31-.6-.64,.01-.34,.3-.61,.65-.58,.34,.02,.61,.3,.6,.64Z"/><path class="f" d="M73.64,137.82c0,.35-.29,.62-.63,.61-.31-.01-.55-.25-.57-.57-.02-.35,.24-.65,.58-.67,.32,0,.62,.29,.62,.63Z"/><path class="f" d="M73.84,133.22c.02,.35-.25,.65-.59,.66-.33,.01-.62-.28-.62-.63,0-.31,.24-.57,.54-.6,.35-.04,.65,.22,.67,.57Z"/><path class="f" d="M116.17,85.15c.35,.02,.61,.33,.56,.67-.04,.3-.31,.53-.61,.53-.35,0-.64-.29-.62-.63s.32-.59,.67-.57Z"/><path class="f" d="M121.27,85.04c.02,.35-.25,.65-.59,.66-.34,.01-.62-.28-.62-.63,0-.31,.24-.57,.54-.61,.35-.03,.65,.23,.67,.58Z"/><path class="f" d="M155.57,94.18c-.35-.01-.63-.3-.61-.64,.01-.34,.31-.59,.67-.56,.31,.03,.55,.27,.56,.58,.01,.33-.29,.63-.62,.62Z"/><path class="f" d="M139.48,86.23c.03,.33-.25,.65-.59,.67-.33,.02-.65-.27-.66-.6-.01-.3,.23-.57,.54-.61,.35-.04,.68,.2,.71,.54Z"/><path class="f" d="M129.79,85.51c-.33-.01-.63-.32-.62-.66,.01-.34,.33-.59,.69-.56,.32,.03,.57,.29,.57,.59,0,.33-.31,.64-.64,.63Z"/><path class="f" d="M159.87,96.24c.01,.36-.26,.64-.61,.63-.33-.01-.6-.31-.59-.66,.01-.3,.26-.56,.56-.58,.34-.02,.63,.26,.64,.61Z"/><path class="f" d="M103.74,90.04c.02,.33-.28,.64-.62,.65-.3,.01-.56-.23-.6-.55-.04-.36,.21-.68,.54-.7,.35-.02,.66,.26,.68,.6Z"/><path class="f" d="M166.55,102.51c0,.36-.28,.65-.62,.63-.34-.02-.62-.33-.59-.67,.02-.3,.28-.56,.58-.58,.33-.02,.63,.26,.63,.62Z"/><path class="f" d="M147.56,89.79c-.36,.02-.65-.23-.65-.58,0-.33,.29-.62,.63-.62,.3,0,.57,.24,.6,.54,.04,.33-.23,.63-.58,.66Z"/><path class="f" d="M134.94,85.45c-.01,.35-.32,.62-.65,.58-.33-.04-.58-.37-.54-.7,.04-.3,.31-.54,.61-.53,.34,0,.6,.3,.58,.65Z"/><path class="f" d="M92.28,97.61c-.01,.3-.27,.55-.57,.56-.39,.01-.71-.32-.66-.68,.04-.3,.31-.52,.62-.51,.35,.01,.63,.29,.61,.63Z"/><path class="f" d="M179.69,131.17c.02,.3-.21,.59-.5,.63-.38,.05-.73-.24-.73-.63,0-.3,.25-.57,.56-.59,.32-.02,.64,.25,.67,.59Z"/><path class="f" d="M152,184.92c-.02,.3-.28,.55-.58,.55-.34,0-.62-.28-.61-.63,0-.35,.3-.63,.63-.6,.33,.03,.58,.34,.56,.68Z"/><path class="f" d="M177.68,153.94c-.02,.33-.34,.62-.67,.6-.31-.02-.56-.28-.57-.58-.01-.38,.33-.69,.71-.64,.31,.04,.55,.33,.53,.62Z"/><path class="f" d="M99.48,183.6c-.01,.33-.32,.6-.68,.57-.32-.02-.57-.28-.58-.58-.01-.33,.3-.64,.63-.64,.34,.01,.64,.32,.63,.65Z"/><path class="f" d="M143.59,188.42c.02,.35-.24,.64-.58,.66-.3,.02-.57-.22-.61-.52-.04-.34,.2-.66,.53-.71,.34-.04,.64,.22,.66,.57Z"/><path class="f" d="M76.2,119.29c.3,0,.57,.24,.6,.54,.03,.33-.24,.63-.58,.66-.36,.02-.65-.24-.65-.58s.29-.61,.63-.62Z"/><path class="f" d="M77.88,116.26c-.34-.02-.61-.33-.57-.66,.04-.29,.3-.53,.61-.53,.35-.01,.64,.27,.62,.61-.02,.34-.32,.6-.66,.58Z"/><path class="f" d="M112.02,189.04c-.01,.33-.3,.61-.64,.61s-.6-.3-.57-.66c.03-.31,.26-.54,.57-.56,.35-.01,.65,.27,.64,.61Z"/><path class="f" d="M173.73,114.43c-.33,.02-.63-.26-.63-.61-.01-.31,.21-.58,.51-.62,.33-.04,.64,.21,.68,.56,.04,.34-.22,.65-.56,.67Z"/><path class="f" d="M79.95,164.72c-.33,.03-.63-.24-.66-.59-.03-.34,.25-.65,.59-.65,.3,0,.56,.23,.6,.54,.04,.35-.2,.67-.53,.7Z"/><path class="f" d="M172.06,109.8c.02,.3-.21,.58-.51,.62-.33,.05-.67-.19-.72-.51-.05-.33,.2-.65,.55-.67,.35-.03,.65,.22,.68,.56Z"/><path class="f" d="M81.87,107.67c.02-.32,.27-.56,.56-.56,.38,0,.68,.34,.63,.71-.04,.31-.3,.52-.62,.51-.35-.02-.6-.3-.57-.66Z"/><path class="f" d="M125.56,191.15c-.02,.34-.33,.59-.67,.57-.34-.02-.61-.34-.56-.67,.05-.33,.37-.56,.72-.51,.31,.04,.53,.31,.51,.61Z"/><path class="f" d="M168.81,105.44c.34-.03,.64,.25,.65,.59,0,.3-.23,.56-.54,.6-.35,.05-.67-.2-.7-.53-.03-.33,.25-.63,.59-.66Z"/><path class="f" d="M155.93,182.53c-.01,.35-.3,.6-.65,.57-.34-.03-.6-.33-.56-.67,.03-.29,.3-.53,.6-.53,.35,.01,.63,.3,.61,.63Z"/><path class="f" d="M171.9,166.3c.03,.34-.24,.64-.58,.65-.34,.01-.63-.26-.62-.6,0-.3,.23-.56,.53-.6,.34-.04,.65,.21,.67,.55Z"/><path class="f" d="M82.9,168.02c-.02,.35-.33,.61-.65,.57-.3-.04-.54-.31-.54-.6,0-.34,.29-.62,.62-.62,.34,.01,.59,.29,.57,.65Z"/><path class="f" d="M78.42,160.04c-.01,.34-.32,.6-.66,.57-.31-.03-.56-.27-.57-.56-.02-.32,.27-.61,.62-.62,.34-.01,.63,.28,.61,.61Z"/><path class="f" d="M168.65,170.73c-.33-.02-.58-.33-.55-.68,.03-.34,.35-.6,.68-.55,.29,.04,.52,.32,.51,.62-.02,.35-.32,.64-.64,.61Z"/><path class="f" d="M166.38,173.63c0,.34-.31,.62-.65,.6-.33-.03-.61-.35-.59-.67,.03-.29,.29-.53,.6-.54,.35-.02,.64,.26,.64,.61Z"/><path class="f" d="M74.75,152.01c-.34,0-.62-.29-.61-.63,.01-.34,.31-.6,.65-.58,.3,.02,.54,.27,.56,.57,.01,.35-.26,.64-.6,.64Z"/><path class="f" d="M179.66,145.04c0,.33-.3,.58-.67,.55-.32-.02-.57-.26-.57-.56,0-.33,.3-.63,.62-.63,.33,.01,.62,.31,.62,.64Z"/><path class="f" d="M99.09,91.62c.33,.01,.62,.33,.61,.65-.01,.33-.33,.59-.68,.56-.3-.03-.55-.28-.56-.59,0-.33,.3-.63,.63-.62Z"/><path class="f" d="M102.87,186.34c-.35,0-.64-.28-.62-.61,.02-.31,.26-.56,.55-.59,.34-.03,.64,.23,.67,.57,.02,.33-.26,.62-.6,.63Z"/><path class="f" d="M129.55,191.67c-.34,0-.64-.28-.63-.61,.01-.34,.3-.62,.63-.61,.3,.01,.54,.25,.56,.56,.04,.36-.22,.65-.56,.66Z"/><path class="f" d="M180.07,135.79c-.01,.33-.31,.59-.66,.56-.31-.02-.55-.26-.56-.57-.01-.33,.27-.62,.61-.63,.33,0,.62,.3,.61,.64Z"/><path class="f" d="M95.89,94.7c.01,.32-.29,.64-.62,.65-.33,.01-.63-.3-.62-.63,.01-.31,.25-.56,.56-.59,.35-.03,.67,.24,.68,.57Z"/><path class="f" d="M134.03,191.15c-.32-.02-.56-.26-.55-.57,.01-.34,.28-.62,.62-.63,.33-.01,.62,.3,.6,.63-.02,.35-.32,.59-.67,.57Z"/><path class="f" d="M163.35,99.21c.02,.34-.26,.62-.61,.61-.31,0-.58-.24-.61-.52-.03-.33,.24-.65,.57-.67,.34-.02,.64,.25,.65,.58Z"/><path class="f" d="M107.69,187.57c0,.35-.29,.63-.63,.62-.31-.01-.58-.25-.6-.54-.03-.33,.25-.65,.59-.67,.33-.04,.64,.25,.64,.59Z"/><path class="f" d="M85.66,171.6c.02,.3-.21,.58-.5,.63-.33,.05-.64-.21-.68-.55-.03-.31,.19-.59,.49-.62,.35-.04,.66,.21,.69,.54Z"/><path class="f" d="M74.79,123.68c.35-.01,.64,.27,.62,.61-.01,.31-.26,.56-.56,.57-.34,.01-.62-.27-.62-.62,.01-.31,.25-.56,.56-.56Z"/><path class="f" d="M151.66,91.78c-.35,0-.63-.29-.61-.62,.02-.3,.27-.55,.58-.56,.34-.01,.61,.28,.61,.63-.02,.32-.27,.56-.58,.55Z"/><path class="f" d="M76.03,156.39c-.3-.02-.55-.27-.56-.58-.01-.34,.28-.61,.63-.61,.31,.01,.55,.25,.55,.57,.01,.36-.28,.64-.62,.62Z"/><path class="f" d="M73.19,141.8c.3-.02,.58,.22,.61,.52,.04,.33-.22,.64-.57,.66-.31,.02-.58-.2-.61-.51-.02-.35,.24-.65,.57-.67Z"/><path class="f" d="M175.48,158.81c-.34-.02-.59-.34-.55-.67,.04-.3,.33-.52,.62-.5,.34,.02,.6,.34,.55,.67-.04,.3-.32,.52-.62,.5Z"/><path class="f" d="M177.73,122.32c-.02,.3-.28,.54-.58,.54-.34,0-.62-.3-.59-.63,.02-.3,.28-.54,.59-.54,.33-.01,.61,.29,.58,.63Z"/><path class="f" d="M139.16,189.73c0,.31-.24,.56-.54,.59-.33,.03-.64-.26-.63-.59,0-.34,.31-.61,.64-.58,.3,.02,.53,.27,.53,.58Z"/><path class="f" d="M178.29,126.11c.34-.02,.63,.27,.62,.61-.01,.3-.26,.55-.56,.57-.34,.02-.63-.26-.62-.6,.01-.32,.25-.57,.56-.58Z"/><path class="f" d="M116.44,190.1c.01,.3-.22,.57-.51,.61-.33,.04-.65-.22-.66-.56-.01-.3,.22-.57,.51-.61,.34-.04,.64,.22,.66,.56Z"/><path class="f" d="M74.42,128.72c0,.3-.24,.56-.54,.58-.34,.03-.64-.25-.63-.59,0-.3,.24-.56,.54-.58,.33-.03,.63,.25,.63,.59Z"/><path class="f" d="M88.07,174.48c.3-.02,.58,.2,.62,.5,.05,.33-.21,.65-.55,.67-.34,.02-.63-.26-.62-.6,0-.31,.24-.56,.55-.57Z"/><path class="f" d="M159.01,179.29c.3-.02,.58,.2,.62,.5,.05,.34-.21,.65-.55,.67-.34,.02-.63-.26-.62-.6,.01-.31,.25-.55,.55-.57Z"/><path class="f" d="M174.61,139.59c-.01,.32-.28,.57-.58,.53-.29-.04-.52-.33-.49-.64,.03-.27,.27-.49,.53-.49,.31,.02,.55,.29,.54,.6Z"/><path class="f" d="M117.83,90.4c.3,.01,.54,.29,.5,.6-.03,.27-.27,.46-.54,.45-.27-.01-.49-.23-.51-.49-.01-.3,.25-.57,.55-.56Z"/><path class="f" d="M95.47,174.1c.02,.26-.19,.51-.46,.54-.31,.04-.59-.2-.59-.5,0-.27,.2-.51,.46-.55,.29-.04,.57,.19,.59,.51Z"/><path class="f" d="M80.12,124.78c.26-.01,.5,.21,.52,.48,.02,.31-.23,.58-.53,.57-.27-.01-.5-.22-.53-.48-.02-.3,.23-.56,.54-.57Z"/><path class="f" d="M113.43,92.45c-.3,0-.56-.26-.54-.57,.01-.26,.25-.48,.52-.48,.27-.01,.51,.2,.54,.46,.03,.31-.22,.59-.52,.59Z"/><path class="f" d="M80.45,151.32c.3-.01,.55,.25,.54,.56-.01,.26-.25,.48-.52,.48s-.52-.21-.54-.46c-.03-.29,.22-.57,.52-.58Z"/><path class="f" d="M153.76,177.45c-.01,.31-.28,.55-.58,.52-.26-.03-.47-.26-.47-.53-.01-.3,.28-.55,.58-.52,.26,.03,.48,.27,.47,.53Z"/><path class="f" d="M102.21,178.77c.26-.01,.51,.19,.54,.46,.03,.3-.21,.59-.51,.59-.26,0-.51-.21-.54-.46-.04-.29,.2-.57,.51-.59Z"/><path class="f" d="M106.73,181.38c0,.26-.23,.49-.5,.5-.31,.02-.58-.24-.56-.54,.02-.27,.23-.49,.49-.51,.31-.01,.58,.24,.57,.55Z"/><path class="f" d="M170.69,157.05c-.02,.27-.25,.49-.51,.49-.31,0-.56-.27-.54-.57,.02-.3,.32-.53,.62-.48,.25,.03,.45,.29,.43,.56Z"/><path class="f" d="M166.36,164.81c.02,.3-.24,.56-.55,.56-.26,0-.49-.22-.5-.5-.01-.27,.19-.52,.44-.56,.3-.04,.59,.2,.61,.5Z"/><path class="f" d="M110.89,183.07c0,.28-.2,.5-.48,.52-.31,.02-.58-.22-.57-.52,.01-.26,.23-.5,.48-.52,.3-.05,.57,.21,.57,.52Z"/><path class="f" d="M156.34,100.4c-.01,.28-.24,.5-.52,.49-.31-.01-.56-.3-.52-.6,.03-.26,.31-.47,.57-.44,.27,.03,.48,.28,.47,.55Z"/><path class="f" d="M91.74,170.49c.27,.03,.48,.26,.47,.55-.01,.28-.23,.51-.51,.5-.31-.01-.57-.3-.53-.6,.03-.26,.3-.47,.57-.45Z"/><path class="f" d="M124.03,185.67c-.01,.31-.29,.56-.59,.53-.27-.03-.47-.29-.45-.56,.03-.27,.27-.49,.54-.48,.27,0,.5,.24,.5,.51Z"/><path class="f" d="M122.22,90.86c-.31-.02-.55-.32-.5-.62,.05-.26,.32-.46,.59-.42,.27,.04,.46,.29,.45,.57-.02,.28-.26,.49-.54,.47Z"/><path class="f" d="M127.25,90.16c.02,.27-.2,.53-.47,.55-.31,.02-.59-.24-.58-.55,.01-.28,.24-.49,.52-.49s.51,.21,.53,.49Z"/><path class="f" d="M132.51,184.83c.28,.01,.5,.25,.48,.52-.02,.31-.31,.56-.61,.51-.26-.04-.47-.31-.43-.58,.03-.27,.28-.47,.56-.45Z"/><path class="f" d="M171.87,121.93c-.01,.28-.25,.5-.52,.5-.32-.01-.56-.29-.53-.59,.03-.27,.29-.47,.57-.44,.28,.02,.49,.27,.48,.53Z"/><path class="f" d="M81.47,121.57c-.28-.01-.49-.23-.49-.52,.01-.28,.22-.51,.49-.52,.27-.01,.52,.21,.54,.47,.03,.31-.23,.58-.54,.57Z"/><path class="f" d="M86.15,163.46c.27,.01,.5,.26,.5,.52-.01,.31-.29,.56-.6,.52-.26-.03-.47-.3-.44-.57,.03-.26,.27-.48,.54-.47Z"/><path class="f" d="M152.69,97.81c-.01,.28-.24,.49-.52,.49s-.51-.22-.52-.49c-.01-.27,.21-.53,.47-.54,.31-.03,.58,.23,.57,.54Z"/><path class="f" d="M85.43,112.5c.31,.01,.56,.29,.53,.59-.03,.27-.29,.47-.56,.44-.28-.03-.49-.27-.48-.54,.01-.27,.25-.5,.51-.49Z"/><path class="f" d="M78.94,138.55c.02,.28-.17,.53-.44,.57-.3,.05-.6-.21-.6-.52,.01-.27,.23-.5,.5-.52,.28-.02,.52,.19,.54,.47Z"/><path class="f" d="M140.03,91.64c.27,.01,.49,.26,.48,.53-.01,.27-.23,.5-.51,.51-.28,.01-.52-.2-.54-.48-.01-.31,.25-.57,.57-.56Z"/><path class="f" d="M165.11,109.53c.28,0,.51,.22,.53,.49,.02,.27-.21,.53-.47,.55-.31,.02-.58-.24-.58-.55,0-.27,.23-.49,.52-.49Z"/><path class="f" d="M88.74,167.1c.27-.01,.51,.22,.52,.49s-.2,.51-.48,.54c-.27,.03-.54-.17-.57-.43-.03-.3,.22-.59,.53-.6Z"/><path class="f" d="M171.78,152.29c.28,.02,.5,.25,.5,.52s-.23,.51-.5,.52c-.31,.01-.57-.27-.55-.57,.02-.27,.27-.48,.55-.47Z"/><path class="f" d="M173.69,144.57c-.28-.01-.5-.23-.5-.49s.22-.49,.49-.5c.31-.02,.57,.25,.55,.54-.02,.26-.26,.46-.54,.45Z"/><path class="f" d="M97.94,99.84c-.01,.27-.25,.5-.5,.5-.29,0-.53-.29-.49-.6,.04-.27,.29-.47,.54-.44,.26,.02,.47,.27,.45,.54Z"/><path class="f" d="M168.68,161.01c.01,.27-.19,.51-.45,.54-.26,.02-.51-.18-.54-.45-.04-.3,.21-.6,.5-.59,.26,0,.48,.23,.49,.5Z"/><path class="f" d="M78.56,133.6c.26,0,.48,.23,.5,.5,.01,.31-.25,.57-.54,.54-.26-.03-.46-.27-.45-.54,.01-.27,.24-.5,.49-.5Z"/><path class="f" d="M79.2,143.06c0,.26-.22,.49-.49,.5-.31,.02-.57-.24-.55-.54,.02-.26,.26-.46,.54-.45,.26,.01,.49,.23,.5,.49Z"/><path class="f" d="M109.19,92.8c.27,.01,.49,.24,.5,.52,.01,.31-.28,.55-.59,.51-.26-.04-.47-.3-.45-.56,.02-.27,.27-.48,.54-.47Z"/><path class="f" d="M160.14,171.21c.28,0,.5,.23,.49,.51-.01,.27-.22,.5-.49,.53-.27,.02-.52-.19-.54-.46-.03-.32,.22-.58,.54-.58Z"/><path class="f" d="M144.73,93.63c.02,.26-.2,.52-.47,.54-.3,.03-.58-.23-.57-.54,.01-.27,.23-.49,.52-.49,.27,0,.5,.21,.52,.49Z"/><path class="f" d="M128.49,185.71c.01,.27-.19,.51-.45,.54-.3,.03-.55-.23-.54-.54,.01-.27,.24-.5,.5-.49,.26-.01,.48,.21,.49,.49Z"/><path class="f" d="M119.07,184.71c.27,.01,.5,.24,.5,.5s-.23,.48-.5,.49c-.31,.01-.57-.25-.54-.54,.03-.26,.27-.46,.54-.45Z"/><path class="f" d="M137.4,184.63c-.02,.27-.27,.49-.54,.46-.27-.02-.49-.26-.49-.52-.01-.27,.22-.5,.49-.51,.32-.01,.57,.25,.54,.57Z"/><path class="f" d="M114.73,184.86c-.31,.02-.58-.23-.58-.54,0-.28,.22-.5,.5-.49,.28,0,.5,.21,.53,.48,.03,.27-.19,.53-.45,.55Z"/><path class="f" d="M141.19,183.9c-.27,0-.5-.22-.52-.5-.02-.31,.26-.56,.57-.53,.26,.03,.48,.28,.47,.55-.01,.26-.25,.48-.52,.48Z"/><path class="f" d="M145.41,182.3c-.27,.01-.51-.19-.54-.45-.02-.26,.18-.51,.45-.54,.31-.04,.6,.21,.6,.5-.01,.25-.24,.47-.51,.49Z"/><path class="f" d="M88.48,109.28c0,.31-.27,.56-.58,.54-.24-.02-.43-.21-.46-.44-.03-.32,.2-.58,.52-.59,.29-.01,.52,.21,.52,.49Z"/><path class="f" d="M91.32,105.88c-.02,.27-.25,.5-.51,.49-.29,0-.53-.3-.49-.61,.04-.27,.29-.46,.55-.43,.27,.04,.47,.27,.45,.55Z"/><path class="f" d="M149.93,179.75c.03,.26-.18,.51-.45,.54-.3,.04-.6-.2-.6-.5,0-.26,.23-.48,.5-.49,.28-.01,.52,.19,.55,.45Z"/><path class="f" d="M167.55,114.33c-.28,0-.5-.21-.51-.5-.01-.27,.19-.51,.47-.54,.3-.03,.57,.23,.56,.55-.01,.28-.24,.49-.52,.49Z"/><path class="f" d="M83.3,117.45c-.27,.01-.51-.19-.54-.45-.03-.29,.24-.55,.55-.54,.27,.01,.5,.24,.49,.5,0,.26-.23,.48-.5,.49Z"/><path class="f" d="M98.45,176.35c.26,0,.49,.23,.5,.5,.02,.31-.24,.57-.54,.54-.26-.02-.46-.26-.45-.54,.01-.27,.23-.5,.49-.5Z"/><path class="f" d="M159.75,103.28c.02,.26-.18,.5-.45,.53-.3,.03-.59-.22-.59-.5,0-.26,.24-.48,.51-.49,.27,0,.51,.2,.53,.46Z"/><path class="f" d="M156.85,175.26c-.27,.01-.51-.19-.54-.45-.03-.3,.23-.56,.54-.54,.27,.01,.5,.23,.5,.49s-.23,.49-.5,.5Z"/><path class="f" d="M101.18,97.79c-.27,.01-.52-.18-.55-.44-.04-.3,.22-.56,.54-.55,.28,.01,.5,.23,.51,.49-.01,.26-.23,.49-.5,.5Z"/><path class="f" d="M83.89,160.62c-.28,.01-.52-.18-.55-.44-.03-.3,.22-.56,.54-.55,.27,.01,.5,.23,.5,.49,.01,.26-.21,.49-.49,.5Z"/><path class="f" d="M173.45,148.53c-.02,.26-.26,.46-.54,.45-.32-.01-.55-.29-.49-.59,.05-.26,.31-.44,.58-.41,.26,.05,.48,.3,.45,.55Z"/><path class="f" d="M173.52,130.06c.27-.01,.51,.19,.54,.46,.04,.3-.23,.58-.54,.56-.27-.01-.49-.24-.49-.52-.01-.26,.2-.48,.49-.5Z"/><path class="f" d="M105.56,95.16c-.02,.27-.27,.47-.56,.43-.29-.03-.48-.27-.46-.55,.03-.27,.28-.48,.56-.44,.27,.04,.48,.29,.46,.56Z"/><path class="f" d="M163.65,168.47c-.03,.28-.26,.47-.55,.46-.27-.01-.47-.26-.44-.55,.03-.28,.28-.49,.54-.47,.27,.03,.48,.29,.45,.56Z"/><path class="f" d="M174.52,134.99c.02,.27-.18,.51-.45,.53-.27,.02-.51-.18-.53-.45-.02-.27,.18-.51,.45-.53,.26-.02,.5,.18,.53,.45Z"/><path class="f" d="M79.16,130.19c-.28,.02-.51-.19-.52-.48-.01-.29,.2-.53,.47-.54,.26-.02,.51,.21,.52,.48,.02,.28-.19,.52-.47,.54Z"/><path class="f" d="M93.92,103.2c-.27-.03-.47-.27-.44-.55,.02-.28,.25-.49,.52-.48,.3,.01,.55,.3,.5,.6-.05,.26-.31,.45-.58,.43Z"/><path class="f" d="M173.17,126.2c0,.27-.22,.5-.5,.5s-.51-.23-.52-.49c0-.26,.23-.49,.51-.5,.28-.01,.5,.21,.51,.49Z"/><path class="f" d="M170.15,117.77c0,.27-.22,.5-.5,.5s-.51-.22-.52-.49c0-.26,.23-.49,.51-.5,.28-.01,.51,.21,.51,.49Z"/><path class="f" d="M162.31,107.04c-.28,.01-.5-.21-.51-.49,0-.27,.22-.5,.5-.5s.51,.23,.52,.49c0,.26-.23,.49-.51,.5Z"/><path class="f" d="M82.46,156.03c.01,.27-.21,.52-.47,.53-.26,.01-.5-.21-.52-.48-.02-.28,.19-.51,.47-.52,.28-.02,.51,.19,.52,.47Z"/><path class="f" d="M131.25,89.92c.28,.02,.48,.27,.45,.54-.03,.27-.28,.49-.54,.46-.27-.02-.47-.27-.45-.55,.02-.27,.26-.48,.54-.45Z"/><path class="f" d="M148.34,95.03c.27,.02,.47,.27,.45,.55-.02,.28-.26,.48-.54,.46-.27-.02-.48-.27-.45-.54,.03-.28,.28-.5,.54-.47Z"/><path class="f" d="M79.85,147.47c.02,.27-.2,.51-.48,.51-.24,0-.45-.17-.48-.4-.04-.27,.16-.53,.43-.56,.26-.03,.51,.18,.53,.45Z"/><path class="f" d="M136.12,91.07c.02,.27-.2,.51-.48,.51-.24,0-.45-.18-.48-.41-.04-.27,.16-.53,.43-.56,.26-.03,.51,.18,.53,.46Z"/><path class="f" d="M169.18,138.74c.01,.25-.16,.46-.4,.48-.27,.03-.49-.21-.48-.5,.02-.25,.22-.45,.45-.44s.42,.21,.43,.46Z"/><path class="f" d="M158.76,110.11c.02,.23-.16,.45-.39,.46-.23,.02-.45-.17-.47-.39-.02-.23,.17-.44,.4-.46s.44,.16,.46,.39Z"/><path class="f" d="M160.18,163.98c-.23,.02-.45-.16-.47-.39-.03-.23,.15-.44,.39-.47,.23-.03,.45,.15,.47,.38,.02,.24-.16,.46-.39,.48Z"/><path class="f" d="M109.74,99.33c-.23,.02-.45-.16-.47-.39-.02-.23,.16-.44,.39-.47,.23-.02,.45,.15,.47,.39,.02,.23-.16,.45-.39,.47Z"/><path class="f" d="M123.01,95.72c-.01,.22-.23,.42-.45,.42-.22-.01-.42-.23-.41-.45s.22-.42,.45-.41c.22,0,.42,.22,.41,.44Z"/><path class="f" d="M98.4,105.5c.23-.02,.45,.16,.47,.39,.02,.23-.16,.45-.39,.47-.23,.02-.45-.17-.47-.39-.03-.23,.16-.45,.39-.47Z"/><path class="f" d="M97.26,168.52c.22,0,.43,.22,.43,.44s-.22,.43-.44,.43-.43-.22-.43-.44,.22-.44,.44-.43Z"/><path class="f" d="M118.6,96.26c.02,.23-.15,.45-.39,.47-.23,.03-.44-.15-.47-.39-.03-.23,.15-.45,.38-.47,.24-.01,.46,.17,.48,.39Z"/><path class="f" d="M88.22,119.96c.01,.23-.17,.45-.4,.46-.22,.02-.44-.18-.46-.4-.02-.23,.17-.44,.4-.46,.24-.01,.45,.17,.46,.4Z"/><path class="f" d="M165.34,120.96c.23-.02,.44,.17,.46,.39,.02,.23-.17,.44-.39,.46-.23,.02-.44-.16-.46-.39-.03-.22,.16-.44,.39-.46Z"/><path class="f" d="M168.61,134.68c-.23,.02-.46-.17-.47-.4-.01-.2,.14-.39,.34-.42,.24-.04,.47,.11,.52,.34,.03,.23-.15,.46-.39,.48Z"/><path class="f" d="M84.55,132.8c-.02,.24-.24,.42-.48,.39-.24-.03-.4-.26-.36-.5,.04-.19,.23-.35,.42-.34,.24,0,.44,.22,.42,.45Z"/><path class="f" d="M101.08,171.76c.03,.23-.17,.46-.41,.47-.23,.01-.45-.2-.45-.43-.01-.19,.16-.38,.36-.4,.26-.04,.48,.12,.5,.36Z"/><path class="f" d="M92.8,112.4c.01,.23-.21,.44-.45,.42-.2-.01-.37-.17-.4-.37-.03-.24,.15-.46,.39-.47,.25-.01,.46,.18,.46,.42Z"/><path class="f" d="M168.42,142.8c.23,.01,.43,.23,.41,.47-.01,.24-.24,.41-.49,.37-.2-.03-.37-.21-.37-.4,0-.24,.22-.45,.45-.44Z"/><path class="f" d="M108.26,175.96c.23,0,.43,.21,.43,.45,0,.21-.16,.38-.36,.4-.24,.02-.46-.16-.48-.39-.02-.23,.18-.46,.41-.46Z"/><path class="f" d="M166.37,152.28c-.25-.02-.43-.23-.39-.47,.03-.19,.22-.36,.41-.37,.22-.01,.45,.21,.45,.44s-.23,.42-.47,.4Z"/><path class="f" d="M138.62,178.99c-.2,.01-.38-.14-.41-.34-.04-.27,.18-.52,.46-.5,.2,.01,.37,.19,.37,.39,.01,.23-.18,.44-.42,.45Z"/><path class="f" d="M150.54,172.34c.22,0,.44,.22,.43,.44-.01,.23-.23,.43-.46,.41-.2-.01-.36-.18-.37-.39-.01-.24,.18-.46,.4-.46Z"/><path class="f" d="M112.36,177.64c.24,0,.44,.2,.43,.44-.01,.23-.23,.41-.47,.39-.21-.02-.36-.18-.38-.38-.01-.24,.18-.45,.42-.45Z"/><path class="f" d="M105.68,100.44c.23-.01,.45,.2,.45,.43,0,.19-.17,.37-.37,.39-.25,.03-.47-.13-.49-.36-.02-.23,.18-.45,.41-.46Z"/><path class="f" d="M89.85,115.67c.23-.01,.44,.2,.43,.43-.01,.23-.23,.42-.46,.4-.2-.02-.36-.18-.38-.38-.02-.23,.17-.44,.41-.45Z"/><path class="f" d="M143.21,177.06c-.01,.24-.23,.42-.46,.4-.24-.02-.4-.25-.36-.49,.03-.2,.2-.35,.4-.35,.24,0,.44,.2,.42,.44Z"/><path class="f" d="M163.83,117.39c0,.23-.21,.43-.44,.44-.19,0-.38-.16-.4-.36-.03-.28,.2-.51,.48-.48,.2,.02,.37,.2,.36,.4Z"/><path class="f" d="M154.03,169.62c.24-.02,.45,.16,.46,.4,.01,.23-.2,.43-.44,.43-.2,0-.38-.16-.4-.36-.03-.24,.14-.45,.38-.47Z"/><path class="f" d="M104.75,174.33c-.02,.23-.24,.42-.47,.39-.24-.02-.41-.25-.37-.48,.04-.22,.2-.33,.41-.35,.24-.01,.45,.21,.43,.44Z"/><path class="f" d="M102.34,103.24c-.03,.24-.25,.4-.49,.36-.2-.04-.35-.2-.35-.4,0-.24,.21-.43,.44-.42,.25,.02,.43,.23,.4,.46Z"/><path class="f" d="M131.49,96.28c-.24,.01-.44-.17-.46-.41-.01-.2,.14-.38,.33-.42,.27-.04,.52,.18,.51,.45-.01,.2-.18,.37-.38,.38Z"/><path class="f" d="M87.12,154.07c.23-.02,.44,.19,.44,.43,0,.2-.15,.38-.34,.42-.23,.04-.46-.14-.49-.37-.02-.24,.16-.46,.39-.48Z"/><path class="f" d="M135.87,97.06c-.24,.02-.46-.18-.46-.4s.22-.44,.45-.42c.22,.02,.36,.14,.4,.36,.04,.23-.14,.44-.39,.46Z"/><path class="f" d="M86.05,150.28c.01,.24-.17,.44-.41,.46-.23,.02-.45-.2-.43-.43,.01-.24,.22-.42,.46-.41,.2,.02,.37,.19,.38,.38Z"/><path class="f" d="M121.43,180.11c-.02,.24-.25,.4-.49,.36-.24-.04-.39-.26-.34-.5,.04-.2,.22-.33,.43-.32,.25,.02,.43,.23,.4,.46Z"/><path class="f" d="M114.3,97.34c.02,.23-.17,.44-.41,.45-.2,.01-.39-.14-.42-.33-.05-.23,.12-.46,.36-.49,.23-.04,.45,.13,.47,.37Z"/><path class="f" d="M84.97,145.97c.02,.24-.14,.45-.39,.48-.23,.03-.46-.17-.45-.4s.22-.43,.44-.43c.2-.02,.38,.15,.4,.35Z"/><path class="f" d="M140.52,97.91c-.02,.2-.19,.36-.39,.36-.24,0-.44-.19-.45-.42-.01-.24,.21-.44,.44-.41,.24,.02,.42,.24,.4,.47Z"/><path class="f" d="M84.38,141.61c-.01,.23-.21,.43-.44,.42-.2,0-.38-.16-.39-.36-.02-.27,.22-.51,.49-.47,.19,.03,.34,.21,.34,.41Z"/><path class="f" d="M93.77,165.74c.01-.23,.23-.43,.46-.41,.23,.02,.4,.24,.36,.49-.03,.2-.21,.36-.4,.37-.22,0-.43-.22-.42-.45Z"/><path class="f" d="M144.28,99.94c-.24,.01-.45-.17-.47-.4-.02-.23,.2-.44,.43-.43,.24,.01,.42,.22,.41,.46-.01,.19-.17,.36-.37,.37Z"/><path class="f" d="M157.27,166.52c.23-.01,.43,.2,.42,.44-.01,.21-.16,.38-.35,.41-.23,.03-.46-.15-.48-.39-.02-.23,.18-.45,.41-.46Z"/><path class="f" d="M134.71,179.64c-.02,.24-.23,.42-.46,.4-.23-.02-.4-.25-.36-.49,.04-.22,.19-.33,.41-.35,.22-.01,.43,.21,.41,.44Z"/><path class="f" d="M130.29,180.27c-.02,.2-.18,.36-.38,.37-.23,.01-.42-.2-.4-.44,.02-.21,.18-.36,.38-.37,.24,0,.42,.2,.4,.44Z"/><path class="f" d="M95.65,109c.01,.23-.21,.43-.44,.41-.23-.02-.42-.23-.4-.46,.02-.19,.19-.35,.39-.36,.24-.01,.44,.18,.45,.41Z"/><path class="f" d="M147.19,175.1c.01,.25-.19,.45-.42,.43-.2-.02-.36-.18-.37-.39-.01-.24,.19-.45,.42-.43,.2,.02,.36,.18,.37,.39Z"/><path class="f" d="M151.88,104.51c-.23,.02-.45-.17-.45-.4s.21-.44,.43-.43c.19,0,.37,.17,.39,.36,.04,.24-.13,.45-.37,.47Z"/><path class="f" d="M155.63,106.95c.01,.24-.2,.44-.43,.42-.19-.02-.35-.2-.36-.4-.01-.24,.2-.44,.43-.42,.19,.03,.35,.2,.36,.4Z"/><path class="f" d="M125.47,180.79c-.24,.01-.44-.18-.44-.41s.21-.44,.43-.42c.22,.03,.35,.15,.39,.37,.04,.24-.14,.45-.38,.46Z"/><path class="f" d="M164.75,156.39c-.23,0-.44-.21-.44-.43s.23-.42,.46-.39c.22,.03,.35,.16,.38,.38,.03,.22-.17,.44-.4,.44Z"/><path class="f" d="M89.48,158.59c-.05,.23-.3,.38-.52,.3-.2-.07-.31-.22-.29-.45,.02-.24,.25-.41,.48-.36s.38,.28,.33,.51Z"/><path class="f" d="M163.04,159.87c.02,.23-.18,.45-.41,.43-.21-.01-.36-.12-.4-.35-.04-.24,.13-.46,.36-.48,.22-.01,.43,.17,.45,.4Z"/><path class="f" d="M168.04,147.62c-.02,.23-.25,.39-.49,.35-.2-.04-.34-.22-.32-.42,.02-.24,.25-.39,.49-.35,.2,.04,.34,.23,.32,.42Z"/><path class="f" d="M91.86,162.31c-.02,.23-.25,.4-.49,.35-.23-.04-.39-.27-.34-.5,.04-.19,.23-.33,.43-.31,.24,.02,.42,.23,.4,.46Z"/><path class="f" d="M126.98,95.14c.23-.02,.46,.17,.46,.39s-.21,.43-.44,.43c-.19,0-.37-.16-.4-.35-.03-.24,.14-.45,.38-.47Z"/><path class="f" d="M83.83,137.6c-.24,.01-.44-.17-.45-.41-.01-.19,.15-.38,.34-.41,.23-.04,.45,.12,.49,.36,.05,.23-.14,.45-.38,.46Z"/><path class="f" d="M168.38,129.83c.03,.23-.17,.45-.4,.45s-.44-.21-.44-.43c0-.19,.17-.37,.36-.39,.24-.03,.45,.13,.48,.37Z"/><path class="f" d="M148.56,101.63c-.01,.23-.23,.41-.47,.37-.21-.03-.35-.19-.35-.4,.01-.24,.22-.41,.47-.37,.2,.03,.35,.2,.35,.4Z"/><path class="f" d="M84.85,127.97c.19-.02,.38,.13,.42,.32,.05,.24-.11,.47-.35,.49-.2,.02-.38-.12-.42-.32-.04-.24,.11-.47,.35-.49Z"/><path class="f" d="M86.06,124.55c-.23-.03-.39-.26-.34-.5,.04-.19,.24-.34,.43-.31,.23,.03,.39,.26,.34,.5-.05,.19-.23,.33-.43,.31Z"/><path class="f" d="M166.89,125.15c.24,0,.41,.21,.38,.46-.03,.21-.19,.35-.39,.35-.24,0-.42-.21-.38-.46,.02-.2,.19-.35,.39-.35Z"/><path class="f" d="M160.68,113.62c.02-.2,.2-.36,.4-.35,.2,.02,.36,.2,.35,.4-.02,.2-.2,.36-.4,.35-.21-.01-.37-.19-.35-.4Z"/><path class="f" d="M117.02,179.32c-.01,.2-.2,.36-.4,.35-.2-.01-.36-.2-.35-.4,.01-.2,.2-.36,.4-.35,.2,.01,.36,.19,.35,.4Z"/><path class="f" d="M129.68,174.55c.17,.04,.28,.15,.28,.34-.01,.21-.2,.35-.4,.29-.18-.06-.25-.2-.23-.37,.01-.16,.2-.28,.35-.26Z"/><path class="f" d="M146.36,106.66c-.04,.18-.14,.29-.33,.29-.2,0-.35-.2-.3-.4,.05-.18,.2-.27,.37-.23,.17,.02,.27,.15,.26,.34Z"/><path class="f" d="M160.57,152.88c-.03,.18-.13,.29-.32,.3-.2,.01-.38-.2-.32-.38,.05-.17,.18-.28,.36-.25,.18,.03,.28,.14,.28,.33Z"/><path class="f" d="M156.1,160.43c-.02,.19-.12,.29-.31,.31-.2,.02-.38-.19-.33-.38,.05-.17,.16-.28,.35-.26,.17,.02,.3,.16,.29,.33Z"/><path class="f" d="M138.2,172.74c.18,.02,.29,.13,.31,.31,.02,.2-.18,.38-.37,.33-.17-.04-.28-.16-.26-.35,.01-.17,.16-.29,.32-.29Z"/><path class="f" d="M162.04,127.15c-.05,.17-.15,.28-.34,.28-.2-.01-.35-.21-.29-.41,.06-.18,.2-.25,.37-.23,.17,.02,.29,.2,.26,.36Z"/><path class="f" d="M146.17,168.95c.17,.05,.28,.15,.27,.34-.01,.21-.22,.35-.41,.29-.18-.06-.25-.2-.23-.38,.03-.15,.21-.27,.37-.25Z"/><path class="f" d="M95.81,117.31c-.05,.17-.15,.28-.34,.27-.2-.01-.35-.22-.28-.41,.06-.18,.2-.26,.37-.22,.18,.04,.26,.18,.25,.36Z"/><path class="f" d="M98.17,114.11c-.19,.01-.31-.1-.34-.27-.03-.19,.08-.31,.25-.36,.19-.06,.4,.12,.39,.31,0,.19-.12,.29-.3,.32Z"/><path class="f" d="M112.6,103.67c-.05,.17-.15,.28-.34,.28-.2-.01-.35-.21-.29-.41,.06-.18,.2-.26,.37-.22,.18,.03,.27,.16,.26,.35Z"/><path class="f" d="M142.51,104.46c.01,.19-.1,.3-.27,.33-.19,.03-.37-.14-.36-.34,.01-.13,.08-.24,.22-.27,.21-.06,.39,.07,.41,.28Z"/><path class="f" d="M129.85,101.1c-.06,.16-.15,.28-.34,.26-.2-.02-.34-.21-.28-.41,.05-.18,.2-.25,.37-.21,.18,.04,.26,.18,.25,.36Z"/><path class="f" d="M138.08,103.16c-.16-.04-.28-.14-.27-.33,.01-.2,.21-.34,.4-.29,.18,.05,.25,.19,.23,.36-.03,.15-.21,.27-.36,.26Z"/><path class="f" d="M163.25,140.44c-.17-.04-.28-.14-.26-.33,.02-.18,.12-.29,.31-.3,.19-.01,.36,.19,.32,.38-.04,.15-.21,.27-.37,.25Z"/><path class="f" d="M89.14,137.65c.19,.01,.3,.12,.33,.3,.04,.21-.15,.4-.35,.37-.19-.03-.29-.15-.28-.34,0-.2,.11-.31,.3-.33Z"/><path class="f" d="M163.61,135.76c-.05,.17-.15,.28-.33,.28-.2,0-.35-.2-.29-.39,.06-.17,.19-.26,.36-.23,.18,.03,.28,.15,.26,.34Z"/><path class="f" d="M112.7,172.34c-.02,.2-.21,.35-.4,.29-.18-.05-.26-.19-.22-.37,.04-.17,.16-.27,.35-.25,.18,.03,.27,.14,.27,.33Z"/><path class="f" d="M98.51,162.18c0,.2-.12,.3-.3,.33-.17,.02-.33-.11-.33-.29,0-.2,.11-.3,.3-.33,.17-.02,.32,.12,.33,.29Z"/><path class="f" d="M134.28,174.24c-.02,.18-.13,.29-.3,.3-.19,.02-.3-.09-.32-.27-.03-.2,.15-.38,.35-.35,.16,.03,.27,.14,.27,.32Z"/><path class="f" d="M121.16,174.62c.01,.18-.09,.3-.27,.32-.18,.02-.3-.08-.36-.24-.06-.18,.12-.39,.31-.38,.19,.02,.29,.13,.32,.3Z"/><path class="f" d="M90.51,146.77c-.01,.19-.12,.29-.3,.3-.19,.01-.29-.11-.32-.28-.03-.2,.15-.39,.34-.35,.18,.03,.28,.14,.28,.33Z"/><path class="f" d="M161.76,149.08c-.18-.04-.29-.13-.29-.32,0-.2,.2-.37,.39-.31,.17,.05,.26,.18,.23,.36-.03,.17-.15,.27-.33,.27Z"/><path class="f" d="M91.81,150.96c-.01,.19-.11,.29-.3,.3-.18,.01-.3-.1-.33-.27-.04-.19,.15-.38,.34-.35,.18,.03,.28,.13,.29,.32Z"/><path class="f" d="M91.8,125.11c-.04,.17-.14,.28-.33,.26-.18-.02-.29-.12-.3-.31-.01-.2,.19-.36,.38-.31,.15,.04,.26,.21,.25,.36Z"/><path class="f" d="M160.21,123.32c-.18-.01-.29-.11-.31-.29-.02-.2,.17-.37,.37-.33,.17,.04,.29,.15,.26,.33-.01,.19-.13,.29-.32,.29Z"/><path class="f" d="M93.33,154.65c.17,.04,.28,.15,.27,.35-.01,.18-.17,.31-.34,.27-.18-.04-.3-.15-.28-.34,.01-.17,.18-.3,.35-.28Z"/><path class="f" d="M158.17,119.42c-.17-.05-.28-.14-.27-.33,.01-.2,.21-.35,.4-.29,.18,.05,.26,.19,.22,.36-.04,.17-.17,.27-.35,.26Z"/><path class="f" d="M158.55,156.82c-.04,.18-.14,.29-.33,.27-.18-.02-.29-.12-.3-.31-.01-.19,.19-.37,.38-.31,.16,.05,.25,.17,.25,.35Z"/><path class="f" d="M100.89,110.61c.03-.18,.12-.29,.31-.3,.19-.02,.37,.19,.32,.37-.05,.16-.16,.27-.35,.25-.17,0-.29-.15-.28-.32Z"/><path class="f" d="M125.55,175.04c-.01,.19-.11,.29-.3,.3-.18,0-.3-.1-.33-.28-.03-.19,.08-.3,.25-.35,.19-.04,.38,.13,.38,.33Z"/><path class="f" d="M149.95,109.2c-.02,.18-.13,.29-.3,.3-.19,.02-.3-.09-.32-.27-.03-.2,.15-.38,.35-.35,.16,.02,.27,.13,.27,.32Z"/><path class="f" d="M104.63,108.18c-.2-.01-.3-.12-.33-.31-.02-.18,.12-.33,.3-.32,.19,.01,.3,.11,.33,.3,.02,.18-.13,.33-.3,.33Z"/><path class="f" d="M108.72,170.43c0,.21-.11,.32-.3,.33-.19,.01-.31-.11-.32-.29-.01-.19,.11-.31,.29-.32,.2-.02,.3,.11,.33,.28Z"/><path class="f" d="M95.54,159.01c-.17,0-.32-.15-.3-.31,.01-.16,.18-.29,.35-.26,.14,.03,.23,.11,.25,.26,.01,.16-.13,.31-.3,.31Z"/><path class="f" d="M90.18,129.58c-.18,.01-.31-.13-.31-.3,.01-.19,.11-.31,.3-.31s.3,.12,.31,.3c.01,.19-.12,.28-.3,.31Z"/><path class="f" d="M133.9,101.37c.18,.01,.32,.14,.3,.32-.02,.18-.13,.31-.32,.29-.19-.01-.3-.12-.3-.32,0-.17,.14-.3,.32-.29Z"/><path class="f" d="M116.77,102.18c.01,.19-.1,.31-.27,.34-.19,.03-.31-.09-.34-.27-.03-.19,.09-.31,.27-.34,.19-.03,.29,.1,.34,.27Z"/><path class="f" d="M93.57,121.06c-.01,.18-.15,.32-.32,.3-.18-.02-.31-.13-.29-.32,.01-.19,.12-.31,.32-.29,.18,0,.28,.12,.29,.31Z"/><path class="f" d="M156.02,115.42c.02,.16-.11,.34-.27,.33-.14,0-.26-.07-.29-.21-.04-.18,.03-.32,.21-.37,.16-.04,.33,.08,.35,.25Z"/><path class="f" d="M152.55,112.08c.05-.19,.16-.29,.35-.26,.18,.03,.29,.16,.27,.35-.01,.16-.19,.3-.35,.26-.19-.05-.29-.16-.27-.35Z"/><path class="f" d="M101.59,165.32c.01,.19-.09,.32-.27,.35-.19,.03-.31-.08-.34-.26-.03-.19,.08-.32,.26-.34,.19-.04,.31,.08,.35,.25Z"/><path class="f" d="M149.98,166.74c-.05,.17-.15,.3-.34,.27-.18-.02-.29-.14-.27-.33,.02-.18,.15-.29,.34-.27,.18,.02,.28,.14,.27,.33Z"/><path class="f" d="M142.26,171.71c-.18-.04-.3-.14-.27-.34,.03-.18,.14-.3,.33-.27,.18,.02,.3,.14,.27,.33-.02,.19-.14,.28-.33,.28Z"/><path class="f" d="M116.53,174.05c-.18-.05-.29-.15-.27-.34,.02-.19,.14-.29,.34-.27,.18,.02,.3,.14,.27,.33-.03,.19-.15,.29-.34,.28Z"/><path class="f" d="M152.93,163.45c.18,.04,.29,.15,.27,.34-.02,.18-.14,.29-.33,.27-.18-.02-.3-.14-.27-.33,.02-.19,.14-.28,.33-.28Z"/><path class="f" d="M162.78,144.18c.2,0,.31,.11,.32,.29,.01,.19-.1,.31-.29,.32-.19,.01-.31-.1-.32-.29,0-.19,.12-.28,.29-.32Z"/><path class="f" d="M89.75,142.39c.01,.19-.09,.31-.27,.34-.19,.03-.31-.09-.34-.27-.03-.19,.09-.31,.27-.34,.19-.02,.3,.09,.34,.27Z"/><path class="f" d="M89.74,133.55c.01,.19-.09,.31-.27,.33-.19,.03-.31-.09-.34-.27-.03-.19,.09-.31,.27-.33,.19-.02,.3,.09,.34,.27Z"/><path class="f" d="M162.81,131.68c-.19,0-.3-.11-.32-.29-.02-.2,.11-.3,.29-.31,.19-.01,.31,.1,.32,.29,.01,.19-.11,.29-.29,.31Z"/><path class="f" d="M125.17,100.63c.17,.05,.3,.15,.27,.34-.02,.18-.14,.3-.33,.27-.18-.02-.29-.14-.27-.33,.02-.19,.14-.29,.33-.28Z"/><path class="f" d="M120.79,101.65c-.19-.01-.3-.11-.31-.3s.11-.3,.29-.31c.19-.01,.3,.11,.31,.29,.01,.19-.1,.29-.29,.32Z"/><path class="f" d="M108.65,105.53c-.04,.18-.14,.3-.34,.27-.18-.03-.3-.14-.27-.33,.02-.18,.14-.29,.33-.27,.19,.02,.29,.14,.28,.33Z"/><path class="f" d="M104.97,168.14c-.02,.17-.17,.29-.33,.26-.19-.04-.25-.18-.22-.35,.02-.14,.14-.21,.27-.22,.16-.02,.3,.15,.28,.31Z"/></g></g></svg>