<svg width="16" height="15" viewBox="0 0 16 15" fill="none" xmlns="http://www.w3.org/2000/svg">
    <path fill-rule="evenodd" clip-rule="evenodd" d="M4.43692 0.231622C4.56987 0.331595 4.78427 0.561237 4.78427 0.561237C5.61661 1.37389 6.87025 3.39514 7.27284 4.42061C7.28127 4.42061 7.52002 5.03035 7.52938 5.32037V5.35898C7.52938 5.80341 7.29063 6.21914 6.90677 6.43196C6.74852 6.5197 6.36362 6.6013 6.17792 6.64066C6.11642 6.6537 6.07677 6.66211 6.07444 6.66457C5.52579 6.75168 4.68409 6.80909 3.76001 6.80909C2.79005 6.80909 1.91184 6.75168 1.37162 6.64477C1.36225 6.64477 0.868847 6.53886 0.704065 6.47056C0.466256 6.36465 0.264961 6.17064 0.136694 5.92912C0.0449403 5.7361 0 5.5322 0 5.32037C0.00842631 5.09766 0.146056 4.68193 0.209722 4.51761C0.612312 3.43374 1.92963 1.364 2.73481 0.571136C2.81845 0.482708 2.91363 0.390072 2.97987 0.325612C3.01521 0.29122 3.0423 0.264849 3.05501 0.251419C3.2563 0.0871056 3.50347 0 3.76937 0C4.00624 0 4.24405 0.0772073 4.43692 0.231622ZM12.9829 5.9681C12.9829 6.40462 12.6486 6.758 12.2357 6.758C11.8229 6.758 11.4886 6.40462 11.4886 5.9681L11.2826 2.15219C11.2826 1.59589 11.7096 1.14551 12.2357 1.14551C12.7619 1.14551 13.1879 1.59589 13.1879 2.15219L12.9829 5.9681ZM15.296 8.52896C15.5338 8.63587 15.7351 8.82889 15.8634 9.07041C15.9551 9.26344 16.0001 9.46735 16.0001 9.68017C15.9917 9.90189 15.854 10.3186 15.7894 10.4829C15.3878 11.5658 14.0695 13.6356 13.2653 14.4295C13.1831 14.5157 13.0898 14.6065 13.0237 14.6707L13.0236 14.6708L13.0235 14.6708C12.9866 14.7068 12.9582 14.7344 12.9451 14.7482C12.7428 14.9126 12.4966 14.9997 12.2316 14.9997C11.9929 14.9997 11.7551 14.9225 11.5632 14.767C11.4302 14.6681 11.2158 14.4384 11.2158 14.4384C10.3825 13.6267 9.12983 11.6044 8.72724 10.579C8.71787 10.579 8.48006 9.97019 8.4707 9.68017V9.64156C8.4707 9.19613 8.70851 8.78039 9.09331 8.56757C9.25124 8.48074 9.63492 8.39892 9.82104 8.35923L9.82112 8.35922L9.82115 8.35921C9.88323 8.34597 9.9233 8.33743 9.92565 8.33495C10.4743 8.24784 11.316 8.19043 12.2401 8.19043C13.21 8.19043 14.0882 8.24784 14.6285 8.35475C14.6369 8.35475 15.1312 8.46066 15.296 8.52896ZM3.76455 8.24316C3.35166 8.24316 3.01742 8.59654 3.01742 9.03305L2.81144 12.8489C2.81144 13.4052 3.23838 13.8555 3.76455 13.8555C4.29073 13.8555 4.71673 13.4052 4.71673 12.8489L4.51169 9.03305C4.51169 8.59654 4.17744 8.24316 3.76455 8.24316Z" fill="#FAA80A"/>
</svg>