<svg width="20" height="20" viewBox="0 0 20 20" fill="none" xmlns="http://www.w3.org/2000/svg">
    <path fill-rule="evenodd" clip-rule="evenodd" d="M13.75 1.25C14.411 1.25 14.9837 1.51187 15.443 1.97489L18.0271 4.55897C18.4905 5.02233 18.75 5.59093 18.75 6.25C18.75 6.90481 18.4925 7.5841 18.0271 8.04949L8.61276 17.4594C7.95826 18.2144 7.03048 18.6783 5.9455 18.7519H2.5H1.25V17.5019L1.25406 13.9559C1.33373 12.9698 1.79216 12.0529 2.47745 11.4499L11.9512 1.97626C12.4161 1.50898 13.0942 1.25 13.75 1.25ZM4.18946 13.2701C3.93252 13.4973 3.77356 13.8153 3.75 14.0565V16.2531L5.85723 16.2551C6.19211 16.2313 6.50384 16.0755 6.78437 15.7567L12.2617 10.2794L9.72188 7.73965L4.18946 13.2701ZM11.49 5.9722L14.0294 8.51166L16.2369 6.30423L13.6978 3.76515L11.49 5.9722Z" fill="white"/>
</svg>