<svg width="19" height="19" viewBox="0 0 19 19" fill="none" xmlns="http://www.w3.org/2000/svg">
    <path d="M2.7 4.50847L3.38873 15.802C3.46486 17.0367 4.50357 17.9996 5.7621 17.9996H12.8906C14.1215 17.9996 15.149 17.0771 15.2604 15.8723L16.3 4.50847M2.7 4.50847C1.67698 4.57853 1 4.63351 1 4.63351M2.7 4.50847C4.49682 4.38542 7.36116 4.21582 9.5 4.21582C11.6388 4.21582 14.5032 4.38542 16.3 4.50847M16.3 4.50847C17.323 4.57853 18 4.63351 18 4.63351" stroke="#878787" stroke-width="2" stroke-linecap="round"/>
    <path d="M6.9502 3.75676V2C6.9502 1.44771 7.39791 1 7.9502 1H11.0502C11.6025 1 12.0502 1.44772 12.0502 2V3.75676" stroke="#878787" stroke-width="2" stroke-linecap="round"/>
    <path d="M6.1001 3.75684L7.8001 3.75684" stroke="#878787" stroke-width="1.5" stroke-linecap="round"/>
    <path d="M11.2002 3.75684H12.9002" stroke="#878787" stroke-width="1.5" stroke-linecap="round"/>
    <path d="M9.5 8.35156V13.8651" stroke="#878787" stroke-width="1.5" stroke-linecap="round"/>
    <path d="M6.1001 9.27051L6.1001 12.9462" stroke="#878787" stroke-width="1.5" stroke-linecap="round"/>
    <path d="M12.8999 9.27051L12.8999 12.9462" stroke="#878787" stroke-width="1.5" stroke-linecap="round"/>
</svg>