<svg width="15" height="18" viewBox="0 0 15 18" fill="none" xmlns="http://www.w3.org/2000/svg">
    <g clip-path="url(#clip0_101_4421)">
        <path fill-rule="evenodd" clip-rule="evenodd" d="M0.266113 3.8208C0.266113 2.05365 1.61906 0.621094 3.288 0.621094H9.47965C10.3114 0.621094 11.1065 0.98413 11.6774 1.62466L14.3386 4.61042C14.8679 5.20429 15.1628 5.98998 15.1628 6.80656V14.2221C15.1628 15.9893 13.8098 17.4218 12.1409 17.4218H3.288C1.61906 17.4218 0.266113 15.9893 0.266113 14.2221V3.8208ZM10.4116 10.4662C10.1934 10.6355 9.87933 10.596 9.71001 10.3778L9.64803 10.298C9.6268 10.2706 9.60885 10.2418 9.59413 10.2119C9.56882 10.1902 9.54531 10.1656 9.52408 10.1383L9.40012 9.97859C9.37889 9.95124 9.36094 9.92237 9.34622 9.89248C9.3209 9.8708 9.29739 9.84625 9.27616 9.81889L9.1522 9.6592C9.13097 9.63184 9.11302 9.60298 9.0983 9.57308C9.07299 9.5514 9.04948 9.52685 9.02825 9.4995L8.90429 9.3398C8.88306 9.31245 8.86511 9.28358 8.85039 9.25369C8.82508 9.23201 8.80157 9.20746 8.78033 9.18011L8.65638 9.02041C8.63514 8.99305 8.6172 8.96419 8.60247 8.93429C8.57716 8.91261 8.55365 8.88807 8.53242 8.86071L8.40846 8.70101C8.38723 8.67366 8.36928 8.6448 8.35456 8.6149C8.32925 8.59322 8.30574 8.56867 8.2845 8.54132L8.16055 8.38162C8.13931 8.35427 8.12137 8.3254 8.10664 8.2955C8.08133 8.27382 8.05782 8.24928 8.03659 8.22192L7.97461 8.14207C7.96483 8.12947 7.95473 8.11762 7.94437 8.10648C7.93382 8.09513 7.9239 8.08343 7.91461 8.07141C7.90175 8.06354 7.88914 8.05503 7.87681 8.04587C7.85247 8.02777 7.82682 8.01223 7.80017 7.99921C7.78639 7.99248 7.77306 7.98519 7.7602 7.9774C7.74534 7.97468 7.73047 7.97127 7.71564 7.96714C7.68626 7.95898 7.65612 7.95348 7.62562 7.95073C7.61005 7.94932 7.59471 7.94722 7.57963 7.94444C7.56455 7.94722 7.54922 7.94932 7.53365 7.95073C7.50315 7.95348 7.473 7.95898 7.44363 7.96714C7.42879 7.97127 7.41393 7.97468 7.39907 7.9774C7.3862 7.98519 7.37287 7.99248 7.35909 7.99921C7.33245 8.01223 7.3068 8.02777 7.28245 8.04587C7.27012 8.05503 7.25751 8.06354 7.24466 8.07141C7.23536 8.08343 7.22544 8.09513 7.21489 8.10648C7.20453 8.11762 7.19444 8.12947 7.18466 8.14207L7.12268 8.22192C7.10144 8.24928 7.07793 8.27382 7.05262 8.2955C7.0379 8.3254 7.01995 8.35427 6.99872 8.38162L6.87476 8.54132C6.85353 8.56867 6.83002 8.59322 6.80471 8.6149C6.78999 8.6448 6.77204 8.67366 6.7508 8.70101L6.62685 8.86071C6.60561 8.88807 6.58211 8.91261 6.55679 8.93429C6.54207 8.96419 6.52412 8.99305 6.50289 9.02041L6.37893 9.18011C6.3577 9.20746 6.33419 9.23201 6.30888 9.25369C6.29416 9.28358 6.27621 9.31245 6.25498 9.3398L6.13102 9.4995C6.10979 9.52685 6.08628 9.5514 6.06097 9.57308C6.04624 9.60298 6.02829 9.63184 6.00706 9.6592L5.8831 9.81889C5.86187 9.84625 5.83836 9.8708 5.81305 9.89247C5.79833 9.92237 5.78038 9.95124 5.75915 9.97859L5.63519 10.1383C5.61396 10.1656 5.59045 10.1902 5.56514 10.2119C5.55041 10.2418 5.53246 10.2706 5.51123 10.298L5.44925 10.3778C5.27993 10.596 4.96583 10.6355 4.74769 10.4662C4.52955 10.2969 4.48998 9.98281 4.6593 9.76467L4.72128 9.68482C4.74251 9.65747 4.76602 9.63292 4.79133 9.61124C4.80605 9.58134 4.824 9.55248 4.84523 9.52512L4.96919 9.36543C4.99042 9.33807 5.01393 9.31353 5.03925 9.29185C5.05397 9.26195 5.07192 9.23308 5.09315 9.20573L5.21711 9.04603C5.23834 9.01868 5.26185 8.99413 5.28716 8.97245C5.30188 8.94255 5.31983 8.91369 5.34106 8.88634L5.46502 8.72664C5.48625 8.69928 5.50976 8.67474 5.53507 8.65306C5.5498 8.62316 5.56775 8.5943 5.58898 8.56694L5.71294 8.40724C5.73417 8.37989 5.75768 8.35534 5.78299 8.33366C5.79771 8.30377 5.81566 8.2749 5.83689 8.24755L5.96085 8.08785C5.98208 8.06049 6.00559 8.03595 6.0309 8.01427C6.04563 7.98437 6.06357 7.95551 6.08481 7.92815L6.20877 7.76846C6.23 7.7411 6.25351 7.71655 6.27882 7.69487C6.29354 7.66498 6.31149 7.63611 6.33272 7.60876L6.3947 7.52891C6.42265 7.4929 6.45197 7.45843 6.48255 7.42554C6.51446 7.39122 6.55006 7.3624 6.58818 7.33911C6.61556 7.30366 6.64819 7.27133 6.6859 7.24329C6.76027 7.18802 6.83871 7.1405 6.92002 7.10076C6.96228 7.08011 7.00602 7.06596 7.05011 7.05792C7.08838 7.03471 7.13044 7.01629 7.17568 7.00371C7.26373 6.97922 7.35346 6.96293 7.44367 6.95479C7.49021 6.95058 7.53583 6.9529 7.57963 6.96097C7.62344 6.9529 7.66906 6.95058 7.7156 6.95479C7.80581 6.96293 7.89554 6.97922 7.98359 7.00371C8.02883 7.01629 8.07088 7.03471 8.10916 7.05792C8.15325 7.06596 8.19699 7.08011 8.23924 7.10076C8.32056 7.1405 8.399 7.18802 8.47336 7.24329C8.51108 7.27133 8.54371 7.30366 8.57109 7.33911C8.6092 7.3624 8.64481 7.39122 8.67671 7.42554C8.70729 7.45843 8.73661 7.4929 8.76457 7.52891L8.82654 7.60876C8.84778 7.63611 8.86572 7.66498 8.88045 7.69487C8.90576 7.71655 8.92927 7.7411 8.9505 7.76846L9.07446 7.92815C9.09569 7.95551 9.11364 7.98437 9.12836 8.01427C9.15367 8.03595 9.17718 8.06049 9.19842 8.08785L9.32237 8.24755C9.34361 8.2749 9.36155 8.30377 9.37628 8.33366C9.40159 8.35534 9.4251 8.37989 9.44633 8.40724L9.57029 8.56694C9.59152 8.5943 9.60947 8.62316 9.62419 8.65306C9.6495 8.67474 9.67301 8.69928 9.69425 8.72664L9.8182 8.88634C9.83944 8.91369 9.85738 8.94255 9.87211 8.97245C9.89742 8.99413 9.92093 9.01868 9.94216 9.04603L10.0661 9.20573C10.0873 9.23308 10.1053 9.26195 10.12 9.29185C10.1453 9.31352 10.1688 9.33807 10.1901 9.36543L10.314 9.52512C10.3353 9.55248 10.3532 9.58134 10.3679 9.61124C10.3932 9.63292 10.4168 9.65747 10.438 9.68482L10.5 9.76467C10.6693 9.98281 10.6297 10.2969 10.4116 10.4662ZM8.07938 8.8074C8.07926 8.53126 7.85531 8.3075 7.57917 8.30761C7.30302 8.30773 7.07926 8.53168 7.07938 8.80783L7.08123 13.1357C7.08135 13.4118 7.3053 13.6356 7.58144 13.6355C7.85759 13.6354 8.08135 13.4114 8.08123 13.1353L8.07938 8.8074Z" fill="white"/>
        <path fill-rule="evenodd" clip-rule="evenodd" d="M3.07553 1.86889C2.09467 1.86889 1.29952 2.70589 1.29952 3.73838V14.2622C1.29952 15.2947 2.09467 16.1317 3.07553 16.1317H12.0855C13.0664 16.1317 13.8616 15.2947 13.8616 14.2622V5.74466C13.8616 5.36692 14.1525 5.0607 14.5113 5.0607C14.8702 5.0607 15.1611 5.36692 15.1611 5.74466V14.2622C15.1611 16.0502 13.7841 17.4996 12.0855 17.4996H3.07553C1.37696 17.4996 0 16.0502 0 14.2622V3.73838C0 1.95041 1.37696 0.500977 3.07553 0.500977H10.1796C10.5384 0.500977 10.8293 0.807195 10.8293 1.18493C10.8293 1.56267 10.5384 1.86889 10.1796 1.86889H3.07553Z" fill="#1A2634"/>
        <path fill-rule="evenodd" clip-rule="evenodd" d="M9.53027 1.48484C9.53027 0.609202 10.536 0.17067 11.1242 0.789846L14.8875 4.75115C15.4757 5.37032 15.0591 6.42901 14.2272 6.42901H10.464C9.94831 6.42901 9.53027 5.98896 9.53027 5.44614V1.48484ZM10.8298 2.41443V5.06109H13.3441L10.8298 2.41443Z" fill="#1A2634"/>
    </g>
    <defs>
        <clipPath id="clip0_101_4421">
            <rect width="15" height="17" fill="white" transform="translate(0 0.5)"/>
        </clipPath>
    </defs>
</svg>