<svg width="15" height="15" viewBox="0 0 15 15" fill="none" xmlns="http://www.w3.org/2000/svg">
    <path fill-rule="evenodd" clip-rule="evenodd" d="M7.5 13.5C10.8137 13.5 13.5 10.8137 13.5 7.5C13.5 4.18629 10.8137 1.5 7.5 1.5C4.18629 1.5 1.5 4.18629 1.5 7.5C1.5 10.8137 4.18629 13.5 7.5 13.5ZM7.5 15C11.6421 15 15 11.6421 15 7.5C15 3.35786 11.6421 0 7.5 0C3.35786 0 0 3.35786 0 7.5C0 11.6421 3.35786 15 7.5 15Z" fill="#9E6700"/>
    <path d="M8.125 5C8.125 4.65483 7.84519 4.375 7.5 4.375C7.15481 4.375 6.875 4.65483 6.875 5V6.875H5C4.65483 6.875 4.375 7.15481 4.375 7.5C4.375 7.84519 4.65483 8.125 5 8.125H6.875V10C6.875 10.3452 7.15481 10.625 7.5 10.625C7.84519 10.625 8.125 10.3452 8.125 10V8.125H10C10.3452 8.125 10.625 7.84519 10.625 7.5C10.625 7.15481 10.3452 6.875 10 6.875H8.125V5Z" fill="#9E6700"/>
</svg>