<svg width="15" height="10" viewBox="0 0 15 10" fill="none" xmlns="http://www.w3.org/2000/svg">
    <path d="M7.5 1C5.00431 1 3.07756 2.4255 1.46035 4.4099C1.18007 4.75382 1.18007 5.24619 1.46036 5.59011C3.07756 7.5745 5.00431 9 7.5 9C9.99569 9 11.9224 7.5745 13.5396 5.5901C13.8199 5.24619 13.8199 4.75381 13.5396 4.4099C11.9224 2.4255 9.99569 1 7.5 1Z" stroke="#9E6700" stroke-width="1.2" stroke-linecap="round" stroke-linejoin="round"/>
    <path d="M9.125 5.00065C9.125 5.92113 8.39746 6.66732 7.5 6.66732C6.60254 6.66732 5.875 5.92113 5.875 5.00065C5.875 4.08018 6.60254 3.33398 7.5 3.33398C8.39746 3.33398 9.125 4.08018 9.125 5.00065Z" stroke="#9E6700" stroke-width="1.2" stroke-linecap="round" stroke-linejoin="round"/>
</svg>
