<svg width="10" height="16" viewBox="0 0 10 16" fill="none" xmlns="http://www.w3.org/2000/svg">
<path d="M8.83463 14.9182L8.83462 14.9182C8.30702 15.3606 7.46684 15.3606 6.93924 14.9182L6.93924 14.9182L0.491349 9.51148C0.00403092 9.10285 -0.249998 8.55669 -0.249998 7.99999C-0.249998 7.44329 0.00403083 6.89713 0.491349 6.4885L6.93925 1.08179L7.09988 1.27335L6.93925 1.08178C7.46684 0.639406 8.30703 0.639406 8.83462 1.08178C9.10462 1.30817 9.25 1.61547 9.25 1.93331C9.25 2.25115 9.10463 2.55844 8.83462 2.78484C8.83462 2.78484 8.83462 2.78484 8.83462 2.78484L2.61517 7.99999L8.83462 13.2151L8.83463 13.2151C9.10462 13.4415 9.25 13.7488 9.25 14.0667C9.25 14.3845 9.10462 14.6918 8.83463 14.9182Z" fill="white" stroke="white" stroke-width="0.5"/>
</svg>