<svg width="17" height="16" viewBox="0 0 17 16" fill="none" xmlns="http://www.w3.org/2000/svg">
    <path d="M9.26295 3.64706C9.26295 5.10899 8.13188 6.29412 6.73664 6.29412C5.3414 6.29412 4.21033 5.10899 4.21033 3.64706C4.21033 2.18513 5.3414 1 6.73664 1C8.13188 1 9.26295 2.18513 9.26295 3.64706Z" fill="#FAA80A" stroke="#FAA80A" stroke-width="1.5"/>
    <path d="M10.9475 6.29412C12.3428 6.29412 13.4738 5.10899 13.4738 3.64706C13.4738 2.18513 12.3428 1 10.9475 1" stroke="#FAA80A" stroke-width="1.5" stroke-linecap="round"/>
    <path d="M11.7896 8.5C13.3398 8.5 14.5946 9.34946 15.3192 9.98843C15.792 10.4054 16.0001 11.0253 16.0001 11.6556V15.1176" stroke="#FAA80A" stroke-width="1.5" stroke-linecap="round"/>
    <path d="M0.631578 11.8606V13.1321C0.631578 14.3504 1.57414 15.338 2.73684 15.338H10.3158C11.4785 15.338 12.421 14.3504 12.421 13.1321V11.9588C12.421 10.9584 11.8455 10.0548 10.9402 9.73665C9.6464 9.28196 8.00526 8.72036 6.52631 8.72036C5.0779 8.72036 3.14598 9.25901 2.00015 9.70835C1.15072 10.0415 0.631578 10.9103 0.631578 11.8606Z" fill="#FAA80A"/>
    <path fill-rule="evenodd" clip-rule="evenodd" d="M6.52631 9.38212C5.1858 9.38212 3.33494 9.8915 2.22153 10.3281C1.64389 10.5547 1.26316 11.1571 1.26316 11.8606V13.1321C1.26316 13.9849 1.92295 14.6762 2.73684 14.6762H10.3158C11.1297 14.6762 11.7895 13.9849 11.7895 13.1321V11.9588C11.7895 11.2206 11.3678 10.5849 10.7394 10.3641C9.42743 9.90301 7.88468 9.38212 6.52631 9.38212ZM1.77877 9.08857C2.95702 8.62651 4.96999 8.05859 6.52631 8.05859C8.12584 8.05859 9.86536 8.66092 11.1411 9.10923C12.3231 9.52463 13.0526 10.6961 13.0526 11.9588V13.1321C13.0526 14.7159 11.8273 15.9998 10.3158 15.9998H2.73684C1.22532 15.9998 0 14.7159 0 13.1321V11.8606C0 10.6634 0.657556 9.52826 1.77877 9.08857Z" fill="#FAA80A"/>
</svg>