<svg width="15" height="16" viewBox="0 0 15 16" fill="none" xmlns="http://www.w3.org/2000/svg">
    <path fill-rule="evenodd" clip-rule="evenodd" d="M7.5 14C10.8137 14 13.5 11.3137 13.5 8C13.5 4.68629 10.8137 2 7.5 2C4.18629 2 1.5 4.68629 1.5 8C1.5 11.3137 4.18629 14 7.5 14ZM7.5 15.5C11.6421 15.5 15 12.1421 15 8C15 3.85786 11.6421 0.5 7.5 0.5C3.35786 0.5 0 3.85786 0 8C0 12.1421 3.35786 15.5 7.5 15.5Z" fill="white" fill-opacity="0.5"/>
    <path d="M8.125 5.5C8.125 5.15482 7.84519 4.875 7.5 4.875C7.15481 4.875 6.875 5.15482 6.875 5.5V7.375H5C4.65482 7.375 4.375 7.65481 4.375 8C4.375 8.34519 4.65482 8.625 5 8.625H6.875V10.5C6.875 10.8452 7.15481 11.125 7.5 11.125C7.84519 11.125 8.125 10.8452 8.125 10.5V8.625H10C10.3452 8.625 10.625 8.34519 10.625 8C10.625 7.65481 10.3452 7.375 10 7.375H8.125V5.5Z" fill="white" fill-opacity="0.5"/>
</svg>
