<svg width="39" height="29" viewBox="0 0 39 29" fill="none" xmlns="http://www.w3.org/2000/svg">
    <g clip-path="url(#clip0_67_256)">
        <path d="M17.1431 18.0012H26.76C30.3331 18.0012 33.26 15.2149 33.26 11.7319C33.26 8.249 30.3711 5.49931 26.798 5.49931H23.7191L17.1431 -5.30212e-05H26.76C33.4881 -0.0367155 38.9618 5.20601 38.9618 11.6953C38.9998 16.498 35.9589 20.8242 31.3214 22.6207L38.9238 28.9633H30.2571L17.1431 18.0012Z" fill="white"/>
        <path d="M21.8566 10.9986H12.2396C8.66653 10.9986 5.73963 13.785 5.73963 17.2679C5.73963 20.7508 8.62852 23.5372 12.2396 23.5372H15.3186L21.8566 29.0365H12.2396C5.51156 29.0365 0.0378757 23.7938 -0.000135972 17.3412C-0.0381477 12.5018 3.00279 8.17561 7.64021 6.37915L0.0378757 -0.00012207H8.74255L21.8566 10.9986Z" fill="white"/>
    </g>
    <defs>
        <clipPath id="clip0_67_256">
            <rect width="39" height="29" fill="white"/>
        </clipPath>
    </defs>
</svg>