<svg width="15" height="15" viewBox="0 0 15 15" fill="none" xmlns="http://www.w3.org/2000/svg">
    <path d="M2.3 3.68278L2.82667 12.319C2.88489 13.2631 3.6792 13.9995 4.6416 13.9995H10.0928C11.0341 13.9995 11.8198 13.2941 11.905 12.3728L12.7 3.68278M2.3 3.68278C1.51769 3.73635 1 3.77839 1 3.77839M2.3 3.68278C3.67404 3.58867 5.86442 3.45898 7.5 3.45898C9.13558 3.45898 11.326 3.58867 12.7 3.68278M12.7 3.68278C13.4823 3.73635 14 3.77839 14 3.77839" stroke="#878787" stroke-width="1.5" stroke-linecap="round"/>
    <path d="M5.5498 3.10811V2C5.5498 1.44772 5.99752 1 6.5498 1H8.44981C9.00209 1 9.44981 1.44772 9.44981 2V3.10811" stroke="#878787" stroke-width="1.5" stroke-linecap="round"/>
    <path d="M4.8999 3.1084L6.1999 3.1084" stroke="#878787" stroke-width="1.5" stroke-linecap="round"/>
    <path d="M8.7998 3.1084H10.0998" stroke="#878787" stroke-width="1.5" stroke-linecap="round"/>
    <path d="M7.5 6.62207V10.8383" stroke="#878787" stroke-width="1.5" stroke-linecap="round"/>
    <path d="M4.8999 7.32422L4.8999 10.135" stroke="#878787" stroke-width="1.5" stroke-linecap="round"/>
    <path d="M10.1001 7.32422L10.1001 10.135" stroke="#878787" stroke-width="1.5" stroke-linecap="round"/>
</svg>